# This file uses centimeters as units for non-parametric coordinates.

mtllib short_90_corner.mtl
v -0.329102 0.000000 0.329041
v -0.329102 0.292480 0.329041
v -0.329102 0.584961 0.329041
v -0.329102 0.000000 -0.329041
v -0.329102 0.292480 -0.329041
v -0.329102 0.584961 -0.329041
v -0.255859 0.000000 0.329041
v -0.255859 0.097534 0.329041
v -0.182617 0.000000 0.329041
v -0.182617 0.097534 0.329041
v -0.110352 0.000000 0.329041
v -0.110352 0.584961 0.329041
v -0.110352 0.000000 -0.109802
v -0.110352 0.584961 -0.109802
v 0.329102 0.000000 -0.109802
v 0.329102 0.584961 -0.109802
v 0.329102 0.000000 -0.182800
v 0.329102 0.097534 -0.182800
v 0.329102 0.000000 -0.256042
v 0.329102 0.097534 -0.256042
v 0.329102 0.000000 -0.329041
v 0.329102 0.292480 -0.329041
v 0.329102 0.584961 -0.329041
vt 0.584555 0.885019
vt 0.252570 0.443110
vt 0.584555 0.443110
vt 0.252570 0.885019
vt 0.087315 0.664065
vt 0.584555 0.443110
vt 0.087315 0.443110
vt 0.584555 0.664065
vt 0.087315 0.885019
vt 0.584555 0.885019
vt 0.950725 0.896062
vt 0.480661 0.687145
vt 0.480661 0.896062
vt 0.480661 0.478228
vt 0.950725 0.478228
vt 0.794124 0.478228
vt 0.480661 0.896062
vt 0.480661 0.478228
vt 0.794124 0.896062
vt 0.262728 0.060744
vt 0.092958 0.571477
vt 0.092958 0.060744
vt 0.262728 0.401327
vt 0.603786 0.571477
vt 0.603786 0.401327
usemtl lambert2SG
f 21 20 19
f 17 16 15
f 16 17 18
f 16 18 23
f 23 18 20
f 23 20 21
f 23 21 22
f 16/1 13/2 15/3
f 13/2 16/1 14/4
f 12/20 6/21 3/22
f 6/21 12/20 14/23
f 6/21 14/23 23/24
f 23/24 14/23 16/25
f 6/11 2/12 3/13
f 2/12 6/11 1/14
f 1/14 6/11 4/15
f 4 6 5
f 12 9 11
f 9 12 10
f 10 12 2
f 2 12 3
f 8 1 7
f 1 8 2
f 2 8 10
f 13/16 12/17 11/18
f 12/17 13/16 14/19
f 5/5 21/6 4/7
f 21/6 5/5 22/8
f 22/8 5/5 6/9
f 22/8 6/9 23/10
