# Blender v2.79 (sub 0) OBJ File: 'Rock Formation.blend'
# www.blender.org
mtllib Rock FormationSmallCollider2.mtl
o Cylinder.001
v 1.384207 0.002985 -0.399400
v 1.384207 3.701967 -0.399400
v 1.666751 0.002985 -0.343198
v 1.666751 3.701967 -0.343198
v 1.906281 0.002985 -0.183150
v 1.906281 3.701967 -0.183150
v 2.066329 0.002985 0.056380
v 2.066329 3.701967 0.056380
v 2.122531 0.002985 0.338924
v 2.122531 3.701967 0.338924
v 2.066329 0.002985 0.621469
v 2.066329 3.701967 0.621469
v 1.906281 0.002985 0.860999
v 1.906281 3.701967 0.860999
v 1.666751 0.002985 1.021047
v 1.666751 3.701967 1.021047
v 1.384207 0.002985 1.077249
v 1.384207 3.701967 1.077249
v 1.101662 0.002985 1.021047
v 1.101662 3.701967 1.021047
v 0.862133 0.002985 0.860999
v 0.862133 3.701967 0.860999
v 0.702084 0.002985 0.621469
v 0.702084 3.701967 0.621469
v 0.645882 0.002985 0.338924
v 0.645882 3.701967 0.338924
v 0.702084 0.002985 0.056380
v 0.702084 3.701967 0.056380
v 0.862133 0.002985 -0.183150
v 0.862133 3.701967 -0.183150
v 1.101662 0.002985 -0.343198
v 1.101662 3.701967 -0.343198
usemtl None
s off
f 2 3 1
f 4 5 3
f 6 7 5
f 8 9 7
f 10 11 9
f 12 13 11
f 14 15 13
f 16 17 15
f 18 19 17
f 20 21 19
f 22 23 21
f 24 25 23
f 26 27 25
f 28 29 27
f 18 14 6
f 30 31 29
f 32 1 31
f 15 23 7
f 2 4 3
f 4 6 5
f 6 8 7
f 8 10 9
f 10 12 11
f 12 14 13
f 14 16 15
f 16 18 17
f 18 20 19
f 20 22 21
f 22 24 23
f 24 26 25
f 26 28 27
f 28 30 29
f 6 4 30
f 2 32 30
f 30 28 26
f 26 24 22
f 22 20 18
f 18 16 14
f 14 12 6
f 10 8 6
f 4 2 30
f 30 26 22
f 22 18 6
f 12 10 6
f 6 30 22
f 30 32 31
f 32 2 1
f 31 1 7
f 3 5 7
f 7 9 11
f 11 13 7
f 15 17 19
f 19 21 23
f 23 25 27
f 27 29 31
f 1 3 7
f 7 13 15
f 15 19 23
f 23 27 31
f 31 7 23
o Cylinder
v 0.250493 0.004252 -3.016201
v 0.250493 5.273728 -3.016201
v 0.854394 0.004252 -2.896077
v 0.854394 5.273728 -2.896077
v 1.366357 0.004252 -2.553995
v 1.366357 5.273728 -2.553995
v 1.708439 0.004252 -2.042032
v 1.708439 5.273728 -2.042032
v 1.828562 0.004252 -1.438131
v 1.828562 5.273728 -1.438131
v 1.708439 0.004252 -0.834230
v 1.708439 5.273728 -0.834230
v 1.366357 0.004252 -0.322267
v 1.366357 5.273728 -0.322267
v 0.854394 0.004252 0.019816
v 0.854394 5.273728 0.019816
v 0.250493 0.004252 0.139939
v 0.250493 5.273728 0.139939
v -0.353408 0.004252 0.019816
v -0.353408 5.273728 0.019816
v -0.865371 0.004252 -0.322267
v -0.865371 5.273728 -0.322267
v -1.207454 0.004252 -0.834229
v -1.207454 5.273728 -0.834229
v -1.327577 0.004252 -1.438131
v -1.327577 5.273728 -1.438131
v -1.207454 0.004252 -2.042032
v -1.207454 5.273728 -2.042032
v -0.865371 0.004252 -2.553995
v -0.865371 5.273728 -2.553995
v -0.353408 0.004252 -2.896078
v -0.353408 5.273728 -2.896078
usemtl None
s off
f 34 35 33
f 36 37 35
f 38 39 37
f 40 41 39
f 42 43 41
f 44 45 43
f 46 47 45
f 48 49 47
f 50 51 49
f 52 53 51
f 54 55 53
f 56 57 55
f 58 59 57
f 60 61 59
f 50 46 38
f 62 63 61
f 64 33 63
f 47 55 63
f 34 36 35
f 36 38 37
f 38 40 39
f 40 42 41
f 42 44 43
f 44 46 45
f 46 48 47
f 48 50 49
f 50 52 51
f 52 54 53
f 54 56 55
f 56 58 57
f 58 60 59
f 60 62 61
f 38 36 62
f 34 64 62
f 62 60 58
f 58 56 62
f 54 52 50
f 50 48 46
f 46 44 42
f 42 40 38
f 36 34 62
f 62 56 54
f 54 50 38
f 46 42 38
f 38 62 54
f 62 64 63
f 64 34 33
f 63 33 35
f 35 37 39
f 39 41 43
f 43 45 47
f 47 49 55
f 51 53 55
f 55 57 59
f 59 61 63
f 63 35 39
f 39 43 47
f 49 51 55
f 55 59 63
f 63 39 47
