# Blender v2.77 (sub 0) OBJ File: ''
# www.blender.org
mtllib pavement_tile_coll.mtl
o Cube.008_Cube.012
v 0.992263 -0.015427 -0.992263
v 0.992263 -0.015428 0.992263
v -0.992263 -0.015428 0.992263
v -0.992263 -0.015427 -0.992263
v 0.992263 0.009143 -0.992263
v -0.992263 0.009143 -0.992263
v -0.992263 0.009143 0.992263
v 0.992262 0.009143 0.992264
vt 1.9074 1.9074
vt -0.9074 1.9074
vt -0.9074 -0.9074
vt 1.9074 -0.9074
vt -0.9077 1.9077
vt -0.9077 -0.9077
vt 1.9077 -0.9077
vt 1.9077 1.9077
vt 1.8559 1.5465
vt 1.9074 1.6025
vt -0.6439 1.6025
vt -0.5938 1.5558
vt -0.9074 -0.9074
vt -0.8559 -0.8517
vt 1.6439 -0.9074
vt 1.5938 -0.8610
vn 0.0000 -1.0000 -0.0000
vn -0.0000 1.0000 0.0000
vn 1.0000 0.0000 0.0000
vn -0.0000 -0.0000 1.0000
vn -1.0000 0.0000 0.0000
vn 0.0000 0.0000 -1.0000
usemtl Material.007
s 1
f 1/1/1 2/2/1 3/3/1 4/4/1
f 5/5/2 6/6/2 7/7/2 8/8/2
f 1/9/3 5/10/3 8/11/3 2/12/3
f 2/12/4 8/11/4 7/13/4 3/14/4
f 3/14/5 7/13/5 6/15/5 4/16/5
f 5/10/6 1/9/6 4/16/6 6/15/6
