# This file uses centimeters as units for non-parametric coordinates.

mtllib short_tight_90.mtl
v -0.548828 0.000000 -0.328979
v -0.548828 0.584961 -0.328979
v -0.548828 0.000000 -0.402222
v -0.548828 0.097534 -0.402222
v -0.548828 0.000000 -0.475220
v -0.548828 0.097534 -0.475220
v -0.548828 0.000000 -0.548462
v -0.548828 0.584961 -0.548462
v -0.475098 0.000000 -0.402222
v -0.475098 0.097534 -0.402222
v -0.475098 0.000000 -0.475220
v -0.475098 0.097534 -0.475220
v -0.474609 0.000000 -0.475220
v -0.474609 0.097534 -0.475220
v -0.470703 0.000000 -0.483765
v -0.470703 0.097534 -0.483765
v -0.467773 0.000000 -0.325317
v -0.467773 0.584961 -0.325317
v -0.463379 0.000000 -0.384521
v -0.463379 0.097534 -0.384521
v -0.456055 0.000000 -0.499878
v -0.456055 0.097534 -0.499878
v -0.447266 0.000000 -0.370483
v -0.447266 0.097534 -0.370483
v -0.447266 0.000000 -0.543823
v -0.447266 0.584961 -0.543823
v -0.438965 0.000000 -0.511841
v -0.438965 0.097534 -0.511841
v -0.427734 0.000000 -0.361206
v -0.427734 0.097534 -0.361206
v -0.418945 0.000000 -0.518799
v -0.418945 0.097534 -0.518799
v -0.406738 0.000000 -0.357056
v -0.406738 0.097534 -0.357056
v -0.397461 0.000000 -0.520386
v -0.397461 0.097534 -0.520386
v -0.387207 0.000000 -0.314087
v -0.387207 0.584961 -0.314087
v -0.386230 0.000000 -0.358643
v -0.386230 0.097534 -0.358643
v -0.375977 0.000000 -0.516357
v -0.375977 0.097534 -0.516357
v -0.365723 0.000000 -0.365601
v -0.365723 0.097534 -0.365601
v -0.357422 0.000000 -0.506958
v -0.357422 0.097534 -0.506958
v -0.347656 0.000000 -0.377563
v -0.347656 0.097534 -0.377563
v -0.346680 0.000000 -0.529663
v -0.346680 0.584961 -0.529663
v -0.340820 0.000000 -0.493042
v -0.340820 0.097534 -0.493042
v -0.334473 0.000000 -0.393677
v -0.334473 0.097534 -0.393677
v -0.328613 0.000000 -0.475220
v -0.328613 0.097534 -0.475220
v -0.324707 0.000000 -0.412842
v -0.324707 0.097534 -0.412842
v -0.321777 0.000000 -0.455200
v -0.321777 0.097534 -0.455200
v -0.320313 0.000000 -0.433838
v -0.320313 0.097534 -0.433838
v -0.308105 0.000000 -0.295532
v -0.308105 0.584961 -0.295532
v -0.248047 0.000000 -0.506592
v -0.248047 0.584961 -0.506592
v -0.231445 0.000000 -0.269775
v -0.231445 0.584961 -0.269775
v -0.157227 0.000000 -0.237061
v -0.157227 0.584961 -0.237061
v -0.151855 0.000000 -0.474365
v -0.151855 0.584961 -0.474365
v -0.086914 0.000000 -0.197632
v -0.086914 0.584961 -0.197632
v -0.059082 0.000000 -0.433350
v -0.059082 0.584961 -0.433350
v -0.020020 0.000000 -0.151855
v -0.020020 0.584961 -0.151855
v 0.028809 0.000000 -0.384155
v 0.028809 0.584961 -0.384155
v 0.042969 0.000000 -0.099976
v 0.042969 0.584961 -0.099976
v 0.100098 0.000000 -0.042725
v 0.100098 0.584961 -0.042725
v 0.112305 0.000000 -0.326782
v 0.112305 0.584961 -0.326782
v 0.151367 0.000000 0.019653
v 0.151367 0.584961 0.019653
v 0.190430 0.000000 -0.262207
v 0.190430 0.584961 -0.262207
v 0.197266 0.000000 0.086548
v 0.197266 0.584961 0.086548
v 0.236816 0.000000 0.157227
v 0.236816 0.584961 0.157227
v 0.261719 0.000000 -0.190430
v 0.261719 0.584961 -0.190430
v 0.270020 0.000000 0.231445
v 0.270020 0.584961 0.231445
v 0.295898 0.000000 0.308350
v 0.295898 0.584961 0.308350
v 0.313965 0.000000 0.387207
v 0.313965 0.584961 0.387207
v 0.325684 0.000000 0.467407
v 0.325684 0.584961 0.467407
v 0.327148 0.000000 -0.112549
v 0.327148 0.584961 -0.112549
v 0.329102 0.000000 0.548462
v 0.329102 0.584961 0.548462
v 0.356934 0.000000 0.407104
v 0.356934 0.097534 0.407104
v 0.358398 0.000000 0.385742
v 0.358398 0.097534 0.385742
v 0.361328 0.000000 0.428101
v 0.361328 0.097534 0.428101
v 0.365234 0.000000 0.365601
v 0.365234 0.097534 0.365601
v 0.370605 0.000000 0.447266
v 0.370605 0.097534 0.447266
v 0.377930 0.000000 0.347900
v 0.377930 0.097534 0.347900
v 0.384277 0.000000 -0.028931
v 0.384277 0.584961 -0.028931
v 0.384277 0.000000 0.463379
v 0.384277 0.097534 0.463379
v 0.394043 0.000000 0.333984
v 0.394043 0.097534 0.333984
v 0.402344 0.000000 0.548462
v 0.402344 0.097534 0.548462
v 0.402344 0.000000 0.475342
v 0.402344 0.097534 0.475342
v 0.412598 0.000000 0.324707
v 0.412598 0.097534 0.324707
v 0.433105 0.000000 0.059448
v 0.433105 0.584961 0.059448
v 0.433594 0.000000 0.320679
v 0.433594 0.097534 0.320679
v 0.455078 0.000000 0.322144
v 0.455078 0.097534 0.322144
v 0.474121 0.000000 0.152222
v 0.474121 0.584961 0.152222
v 0.475586 0.000000 0.548462
v 0.475586 0.097534 0.548462
v 0.475586 0.000000 0.475342
v 0.475586 0.097534 0.475342
v 0.475586 0.000000 0.474487
v 0.475586 0.097534 0.474487
v 0.475586 0.000000 0.329102
v 0.475586 0.097534 0.329102
v 0.483887 0.000000 0.470459
v 0.483887 0.097534 0.470459
v 0.492676 0.000000 0.341064
v 0.492676 0.097534 0.341064
v 0.499512 0.000000 0.456421
v 0.499512 0.097534 0.456421
v 0.506348 0.000000 0.248291
v 0.506348 0.584961 0.248291
v 0.506836 0.000000 0.357178
v 0.506836 0.097534 0.357178
v 0.511719 0.000000 0.438843
v 0.511719 0.097534 0.438843
v 0.516602 0.000000 0.376343
v 0.516602 0.097534 0.376343
v 0.518555 0.000000 0.418579
v 0.518555 0.097534 0.418579
v 0.520020 0.000000 0.397339
v 0.520020 0.097534 0.397339
v 0.529785 0.000000 0.346924
v 0.529785 0.584961 0.346924
v 0.543457 0.000000 0.447266
v 0.543457 0.584961 0.447266
v 0.548828 0.000000 0.548462
v 0.548828 0.584961 0.548462
vt 0.485928 0.838258
vt 0.449210 0.939343
vt 0.449210 0.839917
vt 0.495218 0.937241
vt 0.522425 0.833170
vt 0.540784 0.930827
vt 0.558258 0.824765
vt 0.585464 0.920375
vt 0.592985 0.813097
vt 0.629039 0.905777
vt 0.626606 0.798277
vt 0.658458 0.780416
vt 0.671066 0.887197
vt 0.688761 0.759679
vt 0.710880 0.864911
vt 0.717295 0.736178
vt 0.748704 0.838921
vt 0.743174 0.710243
vt 0.766400 0.681986
vt 0.784095 0.809669
vt 0.787192 0.651682
vt 0.816389 0.777153
vt 0.805108 0.619665
vt 0.820149 0.586043
vt 0.846029 0.741873
vt 0.831872 0.551206
vt 0.840057 0.515483
vt 0.845365 0.479152
vt 0.846913 0.442435
vt 0.871908 0.703994
vt 0.946450 0.442435
vt 0.894027 0.663958
vt 0.912608 0.621932
vt 0.927206 0.578412
vt 0.937823 0.533732
vt 0.944017 0.488277
vt 0.207262 0.406218
vt 0.175809 0.671419
vt 0.169188 0.407165
vt 0.213883 0.670472
vt 0.653908 0.659457
vt 0.603966 0.396293
vt 0.647286 0.395203
vt 0.610587 0.660547
vt 0.566369 0.661658
vt 0.514471 0.398540
vt 0.559748 0.397403
vt 0.521092 0.662794
vt 0.695659 0.658406
vt 0.689038 0.394152
vt 0.808107 0.655567
vt 0.766436 0.392199
vt 0.801486 0.391312
vt 0.773057 0.656453
vt 0.735404 0.657404
vt 0.728783 0.393150
vt 0.377496 0.401970
vt 0.339503 0.667340
vt 0.332882 0.403085
vt 0.384117 0.666224
vt 0.468758 0.399686
vt 0.475379 0.663940
vt 0.289553 0.404167
vt 0.254080 0.669471
vt 0.247459 0.405217
vt 0.296174 0.668421
vt 0.429716 0.665084
vt 0.423095 0.400829
vt 0.401680 0.665757
vt 0.359303 0.402397
vt 0.365924 0.666651
vt 0.395059 0.401503
vt 0.650672 0.659509
vt 0.675942 0.394450
vt 0.644051 0.395254
vt 0.682563 0.658704
vt 0.133821 0.408043
vt 0.107560 0.673112
vt 0.100939 0.408858
vt 0.140442 0.672297
vt 0.297302 0.668363
vt 0.258476 0.404911
vt 0.265097 0.669165
vt 0.290681 0.404109
vt 0.324485 0.403266
vt 0.331106 0.667520
vt 0.437826 0.664853
vt 0.467715 0.399684
vt 0.431205 0.400599
vt 0.474336 0.663939
vt 0.582749 0.661218
vt 0.610754 0.396093
vt 0.576128 0.396964
vt 0.617375 0.660347
vt 0.228258 0.405662
vt 0.234879 0.669917
vt 0.199728 0.406371
vt 0.206349 0.670625
vt 0.504514 0.398762
vt 0.511135 0.663016
vt 0.547352 0.662107
vt 0.540731 0.397853
vt 0.173684 0.407016
vt 0.180305 0.671271
vt 0.706066 0.393690
vt 0.712687 0.657944
vt 0.734027 0.392982
vt 0.740648 0.657237
usemtl lambert2SG
f 9 1 3
f 1 9 17
f 17 9 19
f 17 19 37
f 37 19 23
f 37 23 29
f 37 29 33
f 37 33 39
f 37 39 63
f 63 39 43
f 63 43 47
f 63 47 53
f 63 53 57
f 63 57 61
f 25 5 7
f 5 25 11
f 11 25 13
f 13 25 15
f 15 25 21
f 21 25 27
f 27 25 31
f 31 25 49
f 31 49 35
f 35 49 41
f 41 49 45
f 45 49 51
f 51 49 65
f 51 65 55
f 55 65 59
f 59 65 61
f 61 65 63
f 63 65 67
f 67 65 71
f 67 71 69
f 69 71 73
f 73 71 75
f 73 75 77
f 77 75 79
f 77 79 81
f 81 79 85
f 81 85 83
f 83 85 87
f 87 85 89
f 87 89 91
f 91 89 95
f 91 95 93
f 93 95 97
f 97 95 105
f 97 105 99
f 99 105 101
f 101 105 103
f 103 105 107
f 107 105 121
f 107 121 109
f 109 121 111
f 111 121 115
f 115 121 119
f 119 121 125
f 125 121 133
f 125 133 131
f 131 133 135
f 135 133 139
f 135 139 137
f 137 139 147
f 147 139 155
f 147 155 151
f 151 155 157
f 157 155 167
f 157 167 161
f 161 167 165
f 145 141 143
f 141 145 149
f 141 149 171
f 171 149 153
f 171 153 159
f 171 159 163
f 171 163 165
f 171 165 167
f 171 167 169
f 107 113 127
f 113 107 109
f 127 113 117
f 127 117 123
f 127 123 129
f 18/1 8/2 2/3
f 8/2 18/1 26/4
f 26/4 18/1 38/5
f 26/4 38/5 50/6
f 50/6 38/5 64/7
f 50/6 64/7 66/8
f 66/8 64/7 68/9
f 66/8 68/9 72/10
f 72/10 68/9 70/11
f 72/10 70/11 74/12
f 72/10 74/12 76/13
f 76/13 74/12 78/14
f 76/13 78/14 80/15
f 80/15 78/14 82/16
f 80/15 82/16 86/17
f 86/17 82/16 84/18
f 86/17 84/18 88/19
f 86/17 88/19 90/20
f 90/20 88/19 92/21
f 90/20 92/21 96/22
f 96/22 92/21 94/23
f 96/22 94/23 98/24
f 96/22 98/24 106/25
f 106/25 98/24 100/26
f 106/25 100/26 102/27
f 106/25 102/27 104/28
f 106/25 104/28 108/29
f 106/25 108/29 122/30
f 122/30 108/29 172/31
f 122/30 172/31 134/32
f 134/32 172/31 140/33
f 140/33 172/31 156/34
f 156/34 172/31 168/35
f 168/35 172/31 170/36
f 155/37 168/38 167/39
f 168/38 155/37 156/40
f 72/41 75/42 71/43
f 75/42 72/41 76/44
f 80/45 85/46 79/47
f 85/46 80/45 86/48
f 66/49 71/43 65/50
f 71/43 66/49 72/41
f 8/51 25/52 7/53
f 25/52 8/51 26/54
f 50/55 65/50 49/56
f 65/50 50/55 66/49
f 76/44 79/47 75/42
f 79/47 76/44 80/45
f 105/57 122/58 121/59
f 122/58 105/57 106/60
f 86/48 89/61 85/46
f 89/61 86/48 90/62
f 133/63 140/64 139/65
f 140/64 133/63 134/66
f 26/54 49/56 25/52
f 49/56 26/54 50/55
f 121/59 134/66 133/63
f 134/66 121/59 122/58
f 89/61 96/67 95/68
f 96/67 89/61 90/62
f 8 1 2
f 1 8 4
f 4 8 6
f 6 8 5
f 5 8 7
f 3 1 4
f 95/68 106/60 105/57
f 106/60 95/68 96/67
f 139/65 156/40 155/37
f 156/40 139/65 140/64
f 88/69 91/70 92/71
f 91/70 88/69 87/72
f 64/73 37/74 63/75
f 37/74 64/73 38/76
f 169/77 172/78 171/79
f 172/78 169/77 170/80
f 98/81 99/82 100/83
f 99/82 98/81 97/84
f 92/71 93/85 94/86
f 93/85 92/71 91/70
f 84/87 81/88 83/89
f 81/88 84/87 82/90
f 70/91 67/92 69/93
f 67/92 70/91 68/94
f 167/39 170/80 169/77
f 170/80 167/39 168/38
f 100/83 101/95 102/96
f 101/95 100/83 99/82
f 84/87 87/72 88/69
f 87/72 84/87 83/89
f 102/96 103/97 104/98
f 103/97 102/96 101/95
f 82/90 77/99 81/88
f 77/99 82/90 78/100
f 74/101 69/93 73/102
f 69/93 74/101 70/91
f 104/98 107/103 108/104
f 107/103 104/98 103/97
f 38/76 17/105 37/74
f 17/105 38/76 18/106
f 18/106 1/107 17/105
f 1/107 18/106 2/108
f 94/86 97/84 98/81
f 97/84 94/86 93/85
f 78/100 73/102 77/99
f 73/102 78/100 74/101
f 172 141 171
f 141 172 142
f 128 107 127
f 107 128 108
f 108 128 142
f 108 142 172
f 68/94 63/75 67/92
f 63/75 68/94 64/73
f 112 114 110
f 114 112 116
f 114 116 118
f 118 116 120
f 118 120 124
f 124 120 126
f 124 126 130
f 130 126 132
f 148 144 138
f 144 148 146
f 146 148 152
f 146 152 150
f 150 152 154
f 154 152 158
f 154 158 160
f 160 158 162
f 160 162 164
f 164 162 166
f 130 142 128
f 142 130 132
f 142 132 136
f 142 136 138
f 142 138 144
f 129 128 127
f 128 129 130
f 124 129 123
f 129 124 130
f 117 124 123
f 124 117 118
f 113 118 117
f 118 113 114
f 109 114 113
f 114 109 110
f 111 110 109
f 110 111 112
f 115 112 111
f 112 115 116
f 119 116 115
f 116 119 120
f 126 119 125
f 119 126 120
f 132 125 131
f 125 132 126
f 136 131 135
f 131 136 132
f 138 135 137
f 135 138 136
f 148 137 147
f 137 148 138
f 152 147 151
f 147 152 148
f 152 157 158
f 157 152 151
f 158 161 162
f 161 158 157
f 162 165 166
f 165 162 161
f 166 163 164
f 163 166 165
f 164 159 160
f 159 164 163
f 160 153 154
f 153 160 159
f 149 154 153
f 154 149 150
f 146 149 145
f 149 146 150
f 146 143 144
f 143 146 145
f 144 141 142
f 141 144 143
f 6 10 4
f 10 6 12
f 10 12 14
f 10 14 20
f 20 14 16
f 20 16 22
f 20 22 24
f 24 22 28
f 24 28 30
f 30 28 32
f 30 32 34
f 34 32 36
f 34 36 40
f 40 36 42
f 40 42 44
f 44 42 46
f 44 46 48
f 48 46 52
f 48 52 54
f 54 52 56
f 54 56 58
f 58 56 60
f 58 60 62
f 12 5 11
f 5 12 6
f 14 11 13
f 11 14 12
f 15 14 13
f 14 15 16
f 21 16 15
f 16 21 22
f 28 21 27
f 21 28 22
f 32 27 31
f 27 32 28
f 36 31 35
f 31 36 32
f 42 35 41
f 35 42 36
f 46 41 45
f 41 46 42
f 52 45 51
f 45 52 46
f 52 55 56
f 55 52 51
f 56 59 60
f 59 56 55
f 60 61 62
f 61 60 59
f 62 57 58
f 57 62 61
f 58 53 54
f 53 58 57
f 54 47 48
f 47 54 53
f 43 48 47
f 48 43 44
f 39 44 43
f 44 39 40
f 33 40 39
f 40 33 34
f 29 34 33
f 34 29 30
f 23 30 29
f 30 23 24
f 19 24 23
f 24 19 20
f 9 20 19
f 20 9 10
f 3 10 9
f 10 3 4
