# This file uses centimeters as units for non-parametric coordinates.

mtllib short_long_curve.mtl
v -1.132324 0.000000 -1.109253
v -1.132324 0.584961 -1.109253
v -1.132324 0.000000 -1.132690
v -1.132324 0.584961 -1.132690
v -1.129883 0.000000 -1.018677
v -1.129883 0.584961 -1.018677
v -1.123535 0.000000 -0.928345
v -1.123535 0.584961 -0.928345
v -1.113770 0.000000 -0.838257
v -1.113770 0.584961 -0.838257
v -1.104492 0.000000 -0.991455
v -1.104492 0.097534 -0.991455
v -1.103027 0.000000 -0.970093
v -1.103027 0.097534 -0.970093
v -1.100586 0.000000 -1.012329
v -1.100586 0.097534 -1.012329
v -1.100098 0.000000 -0.748535
v -1.100098 0.584961 -0.748535
v -1.096191 0.000000 -0.949829
v -1.096191 0.097534 -0.949829
v -1.091309 0.000000 -1.031494
v -1.091309 0.097534 -1.031494
v -1.083984 0.000000 -0.932251
v -1.083984 0.097534 -0.932251
v -1.083008 0.000000 -0.659668
v -1.083008 0.584961 -0.659668
v -1.077148 0.000000 -1.047607
v -1.077148 0.097534 -1.047607
v -1.067871 0.000000 -0.918213
v -1.067871 0.097534 -0.918213
v -1.062500 0.000000 -0.571411
v -1.062500 0.584961 -0.571411
v -1.059570 0.000000 -1.059570
v -1.059570 0.097534 -1.059570
v -1.059570 0.000000 -1.132690
v -1.059570 0.097534 -1.132690
v -1.048828 0.000000 -0.908936
v -1.048828 0.097534 -0.908936
v -1.037598 0.000000 -0.484009
v -1.037598 0.584961 -0.484009
v -1.027832 0.000000 -0.904785
v -1.027832 0.097534 -0.904785
v -1.010254 0.000000 -0.397827
v -1.010254 0.584961 -0.397827
v -1.006836 0.000000 -0.906372
v -1.006836 0.097534 -0.906372
v -0.988281 0.000000 -1.059570
v -0.988281 0.097534 -1.059570
v -0.986328 0.000000 -0.913330
v -0.986328 0.097534 -0.913330
v -0.986328 0.000000 -1.059570
v -0.986328 0.097534 -1.059570
v -0.986328 0.000000 -1.132690
v -0.986328 0.097534 -1.132690
v -0.979492 0.000000 -0.312622
v -0.979492 0.584961 -0.312622
v -0.978027 0.000000 -1.054688
v -0.978027 0.097534 -1.054688
v -0.968750 0.000000 -0.925293
v -0.968750 0.097534 -0.925293
v -0.961914 0.000000 -1.040771
v -0.961914 0.097534 -1.040771
v -0.955078 0.000000 -0.941406
v -0.955078 0.097534 -0.941406
v -0.950195 0.000000 -1.023071
v -0.950195 0.097534 -1.023071
v -0.945313 0.000000 -0.960571
v -0.945313 0.097534 -0.960571
v -0.944824 0.000000 -0.228760
v -0.944824 0.584961 -0.228760
v -0.942871 0.000000 -1.002930
v -0.942871 0.097534 -1.002930
v -0.941406 0.000000 -0.981567
v -0.941406 0.097534 -0.981567
v -0.913086 0.000000 -1.111572
v -0.913086 0.584961 -1.111572
v -0.913086 0.000000 -1.132690
v -0.913086 0.584961 -1.132690
v -0.910645 0.000000 -1.029785
v -0.910645 0.584961 -1.029785
v -0.906738 0.000000 -0.146484
v -0.906738 0.584961 -0.146484
v -0.904785 0.000000 -0.948120
v -0.904785 0.584961 -0.948120
v -0.895996 0.000000 -0.866699
v -0.895996 0.584961 -0.866699
v -0.883789 0.000000 -0.785889
v -0.883789 0.584961 -0.785889
v -0.868164 0.000000 -0.705444
v -0.868164 0.584961 -0.705444
v -0.865723 0.000000 -0.065674
v -0.865723 0.584961 -0.065674
v -0.849609 0.000000 -0.625732
v -0.849609 0.584961 -0.625732
v -0.827637 0.000000 -0.546875
v -0.827637 0.584961 -0.546875
v -0.821777 0.000000 0.013428
v -0.821777 0.584961 0.013428
v -0.802734 0.000000 -0.468994
v -0.802734 0.584961 -0.468994
v -0.774902 0.000000 -0.392090
v -0.774902 0.584961 -0.392090
v -0.773926 0.000000 0.090698
v -0.773926 0.584961 0.090698
v -0.743652 0.000000 -0.316284
v -0.743652 0.584961 -0.316284
v -0.723633 0.000000 0.165894
v -0.723633 0.584961 0.165894
v -0.709473 0.000000 -0.241943
v -0.709473 0.584961 -0.241943
v -0.671875 0.000000 -0.168945
v -0.671875 0.584961 -0.168945
v -0.669922 0.000000 0.239136
v -0.669922 0.584961 0.239136
v -0.632324 0.000000 -0.097656
v -0.632324 0.584961 -0.097656
v -0.613770 0.000000 0.310181
v -0.613770 0.584961 0.310181
v -0.589355 0.000000 -0.027832
v -0.589355 0.584961 -0.027832
v -0.554688 0.000000 0.378906
v -0.554688 0.584961 0.378906
v -0.543945 0.000000 0.040161
v -0.543945 0.584961 0.040161
v -0.495605 0.000000 0.106323
v -0.495605 0.584961 0.106323
v -0.493164 0.000000 0.445190
v -0.493164 0.584961 0.445190
v -0.444824 0.000000 0.170532
v -0.444824 0.584961 0.170532
v -0.428711 0.000000 0.508911
v -0.428711 0.584961 0.508911
v -0.391602 0.000000 0.232422
v -0.391602 0.584961 0.232422
v -0.361328 0.000000 0.570068
v -0.361328 0.584961 0.570068
v -0.335449 0.000000 0.292358
v -0.335449 0.584961 0.292358
v -0.292480 0.000000 0.628418
v -0.292480 0.584961 0.628418
v -0.277344 0.000000 0.349854
v -0.277344 0.584961 0.349854
v -0.220703 0.000000 0.683960
v -0.220703 0.584961 0.683960
v -0.216797 0.000000 0.405151
v -0.216797 0.584961 0.405151
v -0.154297 0.000000 0.457886
v -0.154297 0.584961 0.457886
v -0.146973 0.000000 0.736694
v -0.146973 0.584961 0.736694
v -0.089844 0.000000 0.508057
v -0.089844 0.584961 0.508057
v -0.070801 0.000000 0.786377
v -0.070801 0.584961 0.786377
v -0.022949 0.000000 0.555664
v -0.022949 0.584961 0.555664
v 0.006836 0.000000 0.833008
v 0.006836 0.584961 0.833008
v 0.045410 0.000000 0.600464
v 0.045410 0.584961 0.600464
v 0.086426 0.000000 0.876465
v 0.086426 0.584961 0.876465
v 0.115723 0.000000 0.642578
v 0.115723 0.584961 0.642578
v 0.167480 0.000000 0.916626
v 0.167480 0.584961 0.916626
v 0.187500 0.000000 0.681885
v 0.187500 0.584961 0.681885
v 0.250000 0.000000 0.953735
v 0.250000 0.584961 0.953735
v 0.260742 0.000000 0.718262
v 0.260742 0.584961 0.718262
v 0.334473 0.000000 0.987305
v 0.334473 0.584961 0.987305
v 0.335938 0.000000 0.751709
v 0.335938 0.584961 0.751709
v 0.411621 0.000000 0.781982
v 0.411621 0.584961 0.781982
v 0.419922 0.000000 1.017456
v 0.419922 0.584961 1.017456
v 0.488770 0.000000 0.809326
v 0.488770 0.584961 0.809326
v 0.506348 0.000000 1.044312
v 0.506348 0.584961 1.044312
v 0.566895 0.000000 0.833496
v 0.566895 0.584961 0.833496
v 0.594238 0.000000 1.067627
v 0.594238 0.584961 1.067627
v 0.645996 0.000000 0.854614
v 0.645996 0.584961 0.854614
v 0.682617 0.000000 1.087402
v 0.682617 0.584961 1.087402
v 0.726074 0.000000 0.872437
v 0.726074 0.584961 0.872437
v 0.771484 0.000000 1.103638
v 0.771484 0.584961 1.103638
v 0.806152 0.000000 0.887085
v 0.806152 0.584961 0.887085
v 0.861328 0.000000 1.116333
v 0.861328 0.584961 1.116333
v 0.887695 0.000000 0.898438
v 0.887695 0.584961 0.898438
v 0.904785 0.000000 1.017944
v 0.904785 0.097534 1.017944
v 0.906250 0.000000 1.039307
v 0.906250 0.097534 1.039307
v 0.908691 0.000000 0.997070
v 0.908691 0.097534 0.997070
v 0.913086 0.000000 1.059448
v 0.913086 0.097534 1.059448
v 0.917969 0.000000 0.977905
v 0.917969 0.097534 0.977905
v 0.925293 0.000000 1.077148
v 0.925293 0.097534 1.077148
v 0.932129 0.000000 0.961792
v 0.932129 0.097534 0.961792
v 0.940918 0.000000 1.091187
v 0.940918 0.097534 1.091187
v 0.949707 0.000000 0.949829
v 0.949707 0.097534 0.949829
v 0.951172 0.000000 1.125366
v 0.951172 0.584961 1.125366
v 0.960449 0.000000 1.100464
v 0.960449 0.097534 1.100464
v 0.968750 0.000000 0.906738
v 0.968750 0.584961 0.906738
v 0.969727 0.000000 0.942871
v 0.969727 0.097534 0.942871
v 0.981445 0.000000 1.104614
v 0.981445 0.097534 1.104614
v 0.991211 0.000000 0.941284
v 0.991211 0.097534 0.941284
v 1.002441 0.000000 1.103027
v 1.002441 0.097534 1.103027
v 1.012207 0.000000 0.945313
v 1.012207 0.097534 0.945313
v 1.022949 0.000000 1.096069
v 1.022949 0.097534 1.096069
v 1.031250 0.000000 0.954712
v 1.031250 0.097534 0.954712
v 1.040527 0.000000 1.084106
v 1.040527 0.097534 1.084106
v 1.041992 0.000000 1.130737
v 1.041992 0.584961 1.130737
v 1.047363 0.000000 0.968628
v 1.047363 0.097534 0.968628
v 1.050781 0.000000 0.911621
v 1.050781 0.584961 0.911621
v 1.054199 0.000000 1.067993
v 1.054199 0.097534 1.067993
v 1.059570 0.000000 1.059448
v 1.059570 0.097534 1.059448
v 1.059570 0.000000 1.057861
v 1.059570 0.097534 1.057861
v 1.059570 0.000000 0.986328
v 1.059570 0.097534 0.986328
v 1.132324 0.000000 1.132690
v 1.132324 0.584961 1.132690
v 1.132324 0.000000 1.059448
v 1.132324 0.097534 1.059448
v 1.132324 0.000000 0.986328
v 1.132324 0.097534 0.986328
v 1.132324 0.000000 0.913208
v 1.132324 0.584961 0.913208
vt 0.632876 0.840154
vt 0.908385 0.841966
vt 0.656364 0.851026
vt 0.885037 0.841269
vt 0.861723 0.839596
vt 0.609807 0.828445
vt 0.838480 0.837087
vt 0.815410 0.833602
vt 0.792445 0.829142
vt 0.769690 0.823845
vt 0.587226 0.815899
vt 0.747178 0.817572
vt 0.724945 0.810463
vt 0.565167 0.802239
vt 0.702991 0.802518
vt 0.681350 0.793597
vt 0.543700 0.787882
vt 0.660128 0.783839
vt 0.522792 0.772548
vt 0.639289 0.773106
vt 0.618937 0.761815
vt 0.502510 0.756518
vt 0.599004 0.749549
vt 0.482891 0.739652
vt 0.579594 0.736585
vt 0.463968 0.722089
vt 0.560706 0.722786
vt 0.542376 0.708289
vt 0.445778 0.703689
vt 0.524708 0.693095
vt 0.428319 0.684453
vt 0.507598 0.677065
vt 0.411661 0.664798
vt 0.491185 0.660477
vt 0.395806 0.644308
vt 0.475398 0.643193
vt 0.380751 0.623260
vt 0.460344 0.625351
vt 0.446022 0.606951
vt 0.366568 0.601514
vt 0.432431 0.587854
vt 0.353256 0.579351
vt 0.419642 0.568339
vt 0.340850 0.556630
vt 0.407619 0.548267
vt 0.329385 0.533491
vt 0.396398 0.527776
vt 0.318792 0.509934
vt 0.386013 0.506867
vt 0.309208 0.485819
vt 0.376465 0.485401
vt 0.300601 0.461425
vt 0.367823 0.463795
vt 0.360017 0.441771
vt 0.292934 0.436753
vt 0.353117 0.419469
vt 0.286278 0.411663
vt 0.347088 0.396887
vt 0.280633 0.386433
vt 0.342000 0.374027
vt 0.275998 0.361063
vt 0.337819 0.351166
vt 0.272374 0.335415
vt 0.334578 0.327888
vt 0.269795 0.309767
vt 0.332208 0.304749
vt 0.268262 0.283840
vt 0.330814 0.281331
vt 0.267704 0.258053
vt 0.330361 0.258053
vt 0.881865 0.903856
vt 0.914414 0.904553
vt 0.907723 0.904553
vt 0.914414 0.841966
vt 0.856078 0.902044
vt 0.830360 0.899256
vt 0.804747 0.895353
vt 0.779377 0.890474
vt 0.754182 0.884620
vt 0.729231 0.877511
vt 0.704629 0.869705
vt 0.680305 0.860923
vt 0.249778 0.631223
vt 0.271996 0.360009
vt 0.270404 0.631334
vt 0.251370 0.359897
vt 0.293044 0.360140
vt 0.291452 0.631466
vt 0.229752 0.631134
vt 0.231344 0.359809
vt 0.137959 0.630994
vt 0.156636 0.359654
vt 0.155044 0.630980
vt 0.139551 0.359668
vt 0.210235 0.631065
vt 0.211826 0.359739
vt 0.121560 0.631030
vt 0.123152 0.359704
vt 0.191225 0.631015
vt 0.192817 0.359690
vt 0.105798 0.631085
vt 0.107390 0.359759
vt 0.172859 0.630988
vt 0.174451 0.359662
vt 0.090809 0.631161
vt 0.092400 0.359835
vt 0.662699 0.636068
vt 0.687718 0.365162
vt 0.686126 0.636488
vt 0.664291 0.364742
vt 0.963240 0.370175
vt 0.940323 0.640935
vt 0.961648 0.641501
vt 0.941915 0.369610
vt 0.918281 0.640371
vt 0.919873 0.369045
vt 0.895820 0.639816
vt 0.897412 0.368490
vt 0.425658 0.632667
vt 0.450525 0.361606
vt 0.448933 0.632932
vt 0.427250 0.361341
vt 0.615339 0.635266
vt 0.640688 0.364335
vt 0.639096 0.635661
vt 0.616930 0.363941
vt 0.314649 0.360295
vt 0.313057 0.631620
vt 0.402540 0.632420
vt 0.404132 0.361094
vt 0.755148 0.637819
vt 0.779148 0.366957
vt 0.777556 0.638283
vt 0.756740 0.366493
vt 0.801245 0.367430
vt 0.799653 0.638756
vt 0.472545 0.633218
vt 0.497772 0.362193
vt 0.496180 0.633519
vt 0.474137 0.361892
vt 0.711082 0.365597
vt 0.709490 0.636923
vt 0.334815 0.631789
vt 0.358700 0.360655
vt 0.357108 0.631981
vt 0.336407 0.360463
vt 0.732407 0.637365
vt 0.733999 0.366039
vt 0.543810 0.634171
vt 0.569220 0.363194
vt 0.567628 0.634520
vt 0.545402 0.362845
vt 0.821396 0.639239
vt 0.844170 0.368401
vt 0.842579 0.639726
vt 0.822988 0.367914
vt 0.863521 0.640226
vt 0.885403 0.369400
vt 0.883811 0.640726
vt 0.865112 0.368900
vt 0.381237 0.360864
vt 0.379645 0.632190
vt 0.591561 0.634887
vt 0.593152 0.363561
vt 0.521586 0.362511
vt 0.519994 0.633837
vt 0.905317 0.369911
vt 0.903725 0.641236
vt 0.924537 0.370421
vt 0.922945 0.641747
vt 0.517097 0.361418
vt 0.489070 0.632389
vt 0.515506 0.632744
vt 0.490662 0.361063
vt 0.336731 0.359362
vt 0.360081 0.630920
vt 0.361673 0.359594
vt 0.335140 0.630688
vt 0.872713 0.639266
vt 0.874305 0.367940
vt 0.264058 0.358793
vt 0.286243 0.630286
vt 0.287835 0.358961
vt 0.262466 0.630119
vt 0.112981 0.358253
vt 0.131030 0.629586
vt 0.132621 0.358261
vt 0.111389 0.629579
vt 0.849209 0.638725
vt 0.850801 0.367400
vt 0.726746 0.364830
vt 0.699444 0.635679
vt 0.725154 0.636156
vt 0.701035 0.364353
vt 0.596268 0.362579
vt 0.568252 0.633500
vt 0.594677 0.633904
vt 0.569844 0.362174
vt 0.412634 0.360123
vt 0.436885 0.631743
vt 0.438476 0.360417
vt 0.411042 0.631449
vt 0.387064 0.359850
vt 0.385472 0.631175
vt 0.240704 0.358646
vt 0.239112 0.629972
vt 0.752286 0.365324
vt 0.750694 0.636649
vt 0.622722 0.363002
vt 0.621130 0.634328
vt 0.826786 0.366866
vt 0.800668 0.637666
vt 0.825194 0.638192
vt 0.802260 0.366340
vt 0.462863 0.632055
vt 0.464455 0.360730
vt 0.775859 0.637153
vt 0.777450 0.365827
vt 0.310399 0.630474
vt 0.311991 0.359148
vt 0.673535 0.635215
vt 0.675127 0.363889
vt 0.541786 0.633111
vt 0.543378 0.361786
vt 0.217863 0.358522
vt 0.216271 0.629848
vt 0.195693 0.358424
vt 0.194101 0.629750
vt 0.174145 0.358349
vt 0.172553 0.629675
vt 0.152948 0.358291
vt 0.151356 0.629616
vt 0.647386 0.634763
vt 0.648977 0.363437
vt 0.093984 0.358268
vt 0.092392 0.629593
vt 0.041887 0.358455
vt 0.056834 0.629694
vt 0.058426 0.358368
vt 0.040295 0.629780
vt 0.037754 0.358481
vt 0.036162 0.629807
vt 0.075830 0.358307
vt 0.074238 0.629633
vt 0.087085 0.631185
vt 0.088677 0.359859
usemtl lambert2SG
f 35 1 3
f 1 35 5
f 5 35 15
f 5 15 7
f 7 15 11
f 7 11 9
f 15 35 21
f 21 35 27
f 27 35 33
f 77 51 53
f 51 77 57
f 57 77 61
f 61 77 65
f 65 77 71
f 71 77 73
f 201 207 203
f 207 201 211
f 211 201 225
f 211 225 215
f 215 225 219
f 219 225 227
f 227 225 247
f 227 247 231
f 231 247 235
f 235 247 239
f 239 247 245
f 245 247 255
f 255 247 263
f 255 263 261
f 11 17 9
f 17 11 13
f 17 13 19
f 17 19 25
f 25 19 23
f 25 23 29
f 25 29 31
f 31 29 37
f 31 37 39
f 39 37 41
f 39 41 43
f 43 41 45
f 43 45 55
f 55 45 49
f 55 49 59
f 55 59 69
f 69 59 63
f 69 63 67
f 69 67 73
f 69 73 81
f 81 73 75
f 75 73 77
f 81 75 79
f 81 79 83
f 81 83 91
f 91 83 85
f 91 85 87
f 91 87 89
f 91 89 93
f 91 93 97
f 97 93 95
f 97 95 99
f 97 99 103
f 103 99 101
f 103 101 105
f 103 105 107
f 107 105 109
f 107 109 113
f 113 109 111
f 113 111 115
f 113 115 117
f 117 115 119
f 117 119 121
f 121 119 123
f 121 123 127
f 127 123 125
f 127 125 129
f 127 129 131
f 131 129 133
f 131 133 135
f 135 133 137
f 135 137 139
f 139 137 141
f 139 141 143
f 143 141 145
f 143 145 149
f 149 145 147
f 149 147 151
f 149 151 153
f 153 151 155
f 153 155 157
f 157 155 159
f 157 159 161
f 161 159 163
f 161 163 165
f 165 163 167
f 165 167 169
f 169 167 171
f 169 171 173
f 173 171 175
f 173 175 179
f 179 175 177
f 179 177 181
f 179 181 183
f 183 181 185
f 183 185 187
f 187 185 189
f 187 189 191
f 191 189 193
f 191 193 195
f 195 193 197
f 195 197 199
f 199 197 201
f 199 201 205
f 199 205 209
f 199 209 221
f 205 201 203
f 221 209 213
f 221 213 217
f 221 217 223
f 221 223 243
f 243 223 229
f 243 229 233
f 243 233 237
f 243 237 241
f 243 241 249
f 243 249 257
f 257 249 251
f 251 249 253
f 257 251 259
f 57 47 51
f 82/1 76/2 70/3
f 76/2 82/1 80/4
f 80/4 82/1 84/5
f 84/5 82/1 92/6
f 84/5 92/6 86/7
f 86/7 92/6 88/8
f 88/8 92/6 90/9
f 90/9 92/6 94/10
f 94/10 92/6 98/11
f 94/10 98/11 96/12
f 96/12 98/11 100/13
f 100/13 98/11 104/14
f 100/13 104/14 102/15
f 102/15 104/14 106/16
f 106/16 104/14 108/17
f 106/16 108/17 110/18
f 110/18 108/17 114/19
f 110/18 114/19 112/20
f 112/20 114/19 116/21
f 116/21 114/19 118/22
f 116/21 118/22 120/23
f 120/23 118/22 122/24
f 120/23 122/24 124/25
f 124/25 122/24 128/26
f 124/25 128/26 126/27
f 126/27 128/26 130/28
f 130/28 128/26 132/29
f 130/28 132/29 134/30
f 134/30 132/29 136/31
f 134/30 136/31 138/32
f 138/32 136/31 140/33
f 138/32 140/33 142/34
f 142/34 140/33 144/35
f 142/34 144/35 146/36
f 146/36 144/35 150/37
f 146/36 150/37 148/38
f 148/38 150/37 152/39
f 152/39 150/37 154/40
f 152/39 154/40 156/41
f 156/41 154/40 158/42
f 156/41 158/42 160/43
f 160/43 158/42 162/44
f 160/43 162/44 164/45
f 164/45 162/44 166/46
f 164/45 166/46 168/47
f 168/47 166/46 170/48
f 168/47 170/48 172/49
f 172/49 170/48 174/50
f 172/49 174/50 176/51
f 176/51 174/50 180/52
f 176/51 180/52 178/53
f 178/53 180/52 182/54
f 182/54 180/52 184/55
f 182/54 184/55 186/56
f 186/56 184/55 188/57
f 186/56 188/57 190/58
f 190/58 188/57 192/59
f 190/58 192/59 194/60
f 194/60 192/59 196/61
f 194/60 196/61 198/62
f 198/62 196/61 200/63
f 198/62 200/63 202/64
f 202/64 200/63 222/65
f 202/64 222/65 226/66
f 226/66 222/65 244/67
f 226/66 244/67 248/68
f 248/68 244/67 258/69
f 248/68 258/69 264/70
f 6/71 4/72 2/73
f 4/72 6/71 78/74
f 78/74 6/71 8/75
f 78/74 8/75 10/76
f 78/74 10/76 18/77
f 78/74 18/77 26/78
f 78/74 26/78 32/79
f 78/74 32/79 40/80
f 78/74 40/80 44/81
f 78/74 44/81 56/82
f 78/74 56/82 70/3
f 78/74 70/3 76/2
f 101/83 106/84 105/85
f 106/84 101/83 102/86
f 105/85 110/87 109/88
f 110/87 105/85 106/84
f 99/89 102/86 101/83
f 102/86 99/89 100/90
f 85/91 88/92 87/93
f 88/92 85/91 86/94
f 95/95 100/90 99/89
f 100/90 95/95 96/96
f 83/97 86/94 85/91
f 86/94 83/97 84/98
f 93/99 96/96 95/95
f 96/96 93/99 94/100
f 79/101 84/98 83/97
f 84/98 79/101 80/102
f 89/103 94/100 93/99
f 94/100 89/103 90/104
f 87/93 90/104 89/103
f 90/104 87/93 88/92
f 75/105 80/102 79/101
f 80/102 75/105 76/106
f 263 262 261
f 259 258 257
f 258 259 260
f 258 260 264
f 264 260 262
f 264 262 263
f 167/107 172/108 171/109
f 172/108 167/107 168/110
f 258/111 243/112 257/113
f 243/112 258/111 244/114
f 244/114 221/115 243/112
f 221/115 244/114 222/116
f 222/116 199/117 221/115
f 199/117 222/116 200/118
f 129/119 134/120 133/121
f 134/120 129/119 130/122
f 159/123 164/124 163/125
f 164/124 159/123 160/126
f 109/88 112/127 111/128
f 112/127 109/88 110/87
f 125/129 130/122 129/119
f 130/122 125/129 126/130
f 181/131 186/132 185/133
f 186/132 181/131 182/134
f 185/133 190/135 189/136
f 190/135 185/133 186/132
f 137/137 142/138 141/139
f 142/138 137/137 138/140
f 171/109 176/141 175/142
f 176/141 171/109 172/108
f 115/143 120/144 119/145
f 120/144 115/143 116/146
f 177/147 182/134 181/131
f 182/134 177/147 178/148
f 147/149 152/150 151/151
f 152/150 147/149 148/152
f 111/128 116/146 115/143
f 116/146 111/128 112/127
f 193/153 198/154 197/155
f 198/154 193/153 194/156
f 201/157 226/158 225/159
f 226/158 201/157 202/160
f 119/145 124/161 123/162
f 124/161 119/145 120/144
f 123/162 126/130 125/129
f 126/130 123/162 124/161
f 163/125 168/110 167/107
f 168/110 163/125 164/124
f 189/136 194/156 193/153
f 194/156 189/136 190/135
f 197/155 202/160 201/157
f 202/160 197/155 198/154
f 133/121 138/140 137/137
f 138/140 133/121 134/120
f 155/163 160/126 159/123
f 160/126 155/163 156/164
f 151/151 156/164 155/163
f 156/164 151/151 152/150
f 141/139 146/165 145/166
f 146/165 141/139 142/138
f 175/142 178/148 177/147
f 178/148 175/142 176/141
f 145/166 148/152 147/149
f 148/152 145/166 146/165
f 225/159 248/167 247/168
f 248/167 225/159 226/158
f 247/168 264/169 263/170
f 264/169 247/168 248/167
f 136/171 131/172 135/173
f 131/172 136/171 132/174
f 104/175 107/176 108/177
f 107/176 104/175 103/178
f 200/118 195/179 199/117
f 195/179 200/118 196/180
f 82/181 91/182 92/183
f 91/182 82/181 81/184
f 18/185 25/186 26/187
f 25/186 18/185 17/188
f 196/180 191/189 195/179
f 191/189 196/180 192/190
f 170/191 165/192 169/193
f 165/192 170/191 166/194
f 150/195 143/196 149/197
f 143/196 150/195 144/198
f 118/199 121/200 122/201
f 121/200 118/199 117/202
f 114/203 117/202 118/199
f 117/202 114/203 113/204
f 70/205 81/184 82/181
f 81/184 70/205 69/206
f 174/207 169/193 173/208
f 169/193 174/207 170/191
f 154/209 149/197 153/210
f 149/197 154/209 150/195
f 188/211 183/212 187/213
f 183/212 188/211 184/214
f 132/174 127/215 131/172
f 127/215 132/174 128/216
f 122/201 127/215 128/216
f 127/215 122/201 121/200
f 184/214 179/217 183/212
f 179/217 184/214 180/218
f 108/177 113/204 114/203
f 113/204 108/177 107/176
f 92/183 97/219 98/220
f 97/219 92/183 91/182
f 166/194 161/221 165/192
f 161/221 166/194 162/222
f 144/198 139/223 143/196
f 139/223 144/198 140/224
f 56/225 69/206 70/205
f 69/206 56/225 55/226
f 44/227 55/226 56/225
f 55/226 44/227 43/228
f 40/229 43/228 44/227
f 43/228 40/229 39/230
f 32/231 39/230 40/229
f 39/230 32/231 31/232
f 180/218 173/208 179/217
f 173/208 180/218 174/207
f 162/222 157/233 161/221
f 157/233 162/222 158/234
f 158/234 153/210 157/233
f 153/210 158/234 154/209
f 140/224 135/173 139/223
f 135/173 140/224 136/171
f 98/220 103/178 104/175
f 103/178 98/220 97/219
f 26/187 31/232 32/231
f 31/232 26/187 25/186
f 192/190 187/213 191/189
f 187/213 192/190 188/211
f 10/235 17/188 18/185
f 17/188 10/235 9/236
f 2/237 5/238 6/239
f 5/238 2/237 1/240
f 4/241 1/240 2/237
f 1/240 4/241 3/242
f 8/243 9/236 10/235
f 9/236 8/243 7/244
f 6/239 7/244 8/243
f 7/244 6/239 5/238
f 77/245 76/106 75/105
f 76/106 77/245 78/246
f 4 35 3
f 35 4 36
f 54 77 53
f 77 54 78
f 78 54 36
f 78 36 4
f 208 206 204
f 206 208 210
f 210 208 212
f 210 212 214
f 214 212 216
f 214 216 218
f 218 216 220
f 218 220 224
f 224 220 228
f 224 228 230
f 230 228 232
f 230 232 234
f 234 232 236
f 234 236 238
f 238 236 240
f 238 240 242
f 242 240 246
f 242 246 250
f 250 246 256
f 250 256 254
f 254 256 262
f 254 262 252
f 252 262 260
f 261 256 255
f 256 261 262
f 252 259 251
f 259 252 260
f 253 252 251
f 252 253 254
f 254 249 250
f 249 254 253
f 250 241 242
f 241 250 249
f 238 241 237
f 241 238 242
f 234 237 233
f 237 234 238
f 230 233 229
f 233 230 234
f 224 229 223
f 229 224 230
f 218 223 217
f 223 218 224
f 214 217 213
f 217 214 218
f 209 214 213
f 214 209 210
f 205 210 209
f 210 205 206
f 203 206 205
f 206 203 204
f 207 204 203
f 204 207 208
f 211 208 207
f 208 211 212
f 215 212 211
f 212 215 216
f 219 216 215
f 216 219 220
f 227 220 219
f 220 227 228
f 231 228 227
f 228 231 232
f 235 232 231
f 232 235 236
f 239 236 235
f 236 239 240
f 245 240 239
f 240 245 246
f 246 255 256
f 255 246 245
f 16 14 12
f 14 16 20
f 20 16 22
f 20 22 24
f 24 22 28
f 24 28 30
f 30 28 34
f 30 34 38
f 54 34 36
f 34 54 38
f 38 54 42
f 42 54 46
f 46 54 48
f 48 54 52
f 48 50 46
f 50 48 58
f 50 58 60
f 60 58 62
f 60 62 64
f 64 62 66
f 64 66 68
f 68 66 72
f 68 72 74
f 35 34 33
f 34 35 36
f 54 51 52
f 51 54 53
f 48 51 47
f 51 48 52
f 58 47 57
f 47 58 48
f 62 57 61
f 57 62 58
f 62 65 66
f 65 62 61
f 66 71 72
f 71 66 65
f 72 73 74
f 73 72 71
f 74 67 68
f 67 74 73
f 68 63 64
f 63 68 67
f 64 59 60
f 59 64 63
f 50 59 49
f 59 50 60
f 46 49 45
f 49 46 50
f 42 45 41
f 45 42 46
f 38 41 37
f 41 38 42
f 30 37 29
f 37 30 38
f 23 30 29
f 30 23 24
f 19 24 23
f 24 19 20
f 13 20 19
f 20 13 14
f 11 14 13
f 14 11 12
f 15 12 11
f 12 15 16
f 21 16 15
f 16 21 22
f 27 22 21
f 22 27 28
f 34 27 33
f 27 34 28
