# Blender v2.79 (sub 0) OBJ File: 'crater.blend'
# www.blender.org
mtllib crater3.mtl
o Crater
v 1.978418 0.034233 1.549433
v -1.330952 0.329249 -0.859372
v -1.451812 0.499511 -1.052986
v -1.458095 0.452001 -0.994530
v -0.502357 0.047565 -2.618545
v 2.084903 0.026373 1.407230
v -2.248719 0.116451 1.142943
v -2.428028 0.031611 1.260541
v 1.291416 0.395659 -0.884171
v -1.818338 0.421266 -0.669756
v -2.351630 0.056271 1.153285
v -1.896806 0.373367 -0.730953
v 1.329420 0.429782 -0.989403
v 1.296284 0.377307 -0.928841
v -1.832304 0.353862 -0.551294
v 0.926890 0.372830 1.252753
v -1.893890 0.381544 -0.641204
v -2.154620 0.282107 -0.855074
v -1.956065 0.356689 -0.573896
v 1.351091 0.181414 1.321951
v -1.673432 0.369865 -0.483554
v 1.346235 0.209813 1.203494
v -0.207820 0.030216 -2.726106
v 2.533207 0.107799 0.256051
v -1.890989 0.327407 -0.592060
v 1.300218 0.203883 1.229627
v 0.219339 0.027979 -2.650045
v 0.150252 0.029010 -2.596551
v 1.351836 0.261060 1.182603
v 1.387772 0.231831 1.108576
v -1.533791 0.459117 -1.071743
v -1.765015 0.370987 -1.158888
v -2.415444 0.029297 1.312156
v -0.476944 0.028685 -2.681368
v -0.328448 0.028757 -2.717953
v 0.031199 0.054874 0.814057
v -2.249063 0.028546 1.435925
v -2.424007 0.038265 1.187818
v -1.640007 0.395697 -1.167935
v -1.903213 0.319881 -0.489667
v 2.241625 0.226311 0.236692
v 2.171456 0.055789 0.498643
v -1.130969 0.194982 -0.678339
v -1.184770 0.150749 -0.654557
v 1.241530 0.401373 -1.009880
v 1.261843 0.397393 -1.102670
v -0.533557 0.219199 1.282869
v 1.226474 0.326105 1.113806
v -0.461391 0.057825 1.286418
v 0.864870 0.360388 1.135189
v 1.474993 0.429116 -1.171633
v -0.508862 0.028689 -2.443922
v 1.380400 0.418949 -1.251427
v 0.997495 0.307898 1.210521
v -1.915663 0.103068 -1.055294
v 0.900620 0.426085 1.287432
v 0.998719 0.358480 1.257451
v -1.431848 0.124638 -0.622035
v -1.918374 0.365736 -0.465695
v -2.500250 0.030034 1.137310
v -1.230874 0.073679 -0.612829
v -0.058432 0.238071 -1.828698
v -0.043086 0.216738 -2.187282
v -0.422202 0.038550 0.907330
v -0.272663 0.213735 -1.966714
v -1.861158 0.397144 -0.496785
v -1.706034 0.375903 -0.399522
v -1.841753 0.409518 -0.230293
v -0.382439 0.050490 1.244524
v -0.280761 0.259259 -1.776239
v -0.490881 0.407760 -1.666110
v 0.951815 0.282584 1.341980
v -1.714373 0.371373 -0.222129
v 2.362295 0.034646 0.476254
v 2.315022 0.028595 0.496690
v 2.601605 0.027942 0.371546
v -0.026755 0.286287 -1.456448
v 2.679703 0.028900 0.278017
v -1.786134 0.029495 1.883766
v -0.003143 0.277605 -1.430319
v -2.049446 0.030832 1.647711
v 2.506172 0.028423 0.414221
v 0.019760 0.341168 -1.439552
v -2.168952 0.029566 1.513791
v 1.168121 0.286381 -0.775580
v 2.695276 0.030186 0.202978
v -0.628006 0.148397 -1.123739
v -1.595361 0.291629 -0.243028
v 0.497383 0.028816 -2.476383
v 0.407471 0.028855 -2.397484
v 0.417108 0.066645 -2.397355
v 2.421537 0.029308 0.451972
v 1.064315 0.230664 -0.902478
v -0.556737 0.111192 -0.959873
v 0.561397 0.032738 -2.445737
v -1.661004 0.314055 -0.384670
v 2.283060 0.026016 0.540958
v 0.348493 0.068634 -2.448689
v 0.271027 0.086547 -2.391937
v 0.087582 0.085614 -2.515929
v 1.158728 0.168136 -0.673504
v 2.283431 0.033601 0.655671
v -0.538392 0.050965 -0.871273
v -0.630676 0.182957 -0.822423
v -1.247381 0.028812 2.048376
v 0.329568 0.028109 -2.453164
v -2.486103 0.137837 -0.522084
v 0.817649 0.054839 -0.740345
v -0.066276 0.166103 -1.449236
v 0.341040 0.028652 -2.545024
v 0.375102 0.028766 -2.550251
v 0.039589 0.286174 -1.616010
v 0.086172 0.027229 -2.553857
v 1.296676 0.254147 1.224718
v 1.807962 0.145160 0.532208
v 1.876798 0.085482 0.687193
v -0.039727 0.183404 -1.602432
v 0.210697 0.029357 -2.536998
v -0.733757 0.060901 -0.545679
v -1.802339 0.332482 -0.108880
v -0.651647 0.184894 -1.141784
v 1.746527 0.220062 0.615934
v -0.089092 0.149381 -1.535703
v -1.567478 0.243182 -0.093890
v 0.718205 0.038268 0.421554
v 1.876616 0.226554 -0.966990
v -1.888556 0.299583 -0.106737
v -1.552243 0.023864 -1.888630
v 2.284646 0.028291 0.692875
v -2.069457 0.325881 -0.124025
v 1.788046 0.300310 -0.791215
v -1.541657 0.210599 -0.077872
v 2.249591 0.028757 0.802434
v 1.760611 0.029865 -1.507546
v -0.901558 0.144908 -0.591637
v 2.192518 0.029638 0.904174
v -0.357701 0.101029 1.310694
v -0.907242 0.046188 -0.523098
v -1.758719 0.275006 -0.049537
v 1.748249 0.114145 0.820387
v 2.016319 0.199046 -0.446251
v -0.504841 0.147946 -2.026838
v -1.476800 0.237156 0.076967
v 1.260684 0.188825 1.340348
v 1.897307 0.128158 -1.367830
v -1.071119 0.030427 -0.352435
v 1.629131 0.110337 1.152590
v -1.911062 0.291985 -0.025986
v 1.846103 0.027931 -1.507726
v -2.251804 0.242727 0.028105
v -1.839476 0.442503 0.064047
v -1.760146 0.433947 0.068063
v 1.927284 0.070900 -1.281050
v -1.913267 0.411933 0.049802
v -0.467169 0.174220 1.665616
v 1.937439 0.050245 -1.220526
v 2.138612 0.028815 1.139102
v 1.856659 0.094527 -1.153194
v 1.356371 0.430215 -0.488496
v 1.448799 0.455599 -0.505000
v -1.656614 0.358376 0.058166
v 1.347172 0.432220 -0.308348
v 1.965373 0.028679 -1.276710
v -0.387161 0.248603 1.673926
v 1.948980 0.112497 -1.204687
v 1.644241 0.332071 -1.265735
v 1.413447 0.425040 -0.257661
v 1.526264 0.437969 -0.369605
v -0.645389 0.212694 1.742908
v 1.458174 0.426632 -0.300994
v 1.940012 0.025001 -1.450460
v -0.417845 0.050516 1.343539
v 1.906815 0.031126 -1.465857
v 1.388966 0.436525 -0.134471
v -0.247698 0.129012 -1.367662
v 1.936498 0.029181 -1.330151
v 1.365879 0.421149 0.145704
v 1.462057 0.394678 0.122684
v -1.503233 0.062175 -0.745209
v -1.984616 0.459554 0.193257
v -2.039704 0.420024 0.259994
v 0.920578 0.138658 0.963541
v -1.112688 0.032118 -0.568877
v 1.947852 0.058838 -1.338250
v -1.942507 0.450269 0.059246
v -2.317198 0.274170 0.259034
v -2.132691 0.379454 0.079344
v -1.128411 0.031372 -0.536512
v -1.175859 0.117943 -0.436630
v -2.107188 0.353097 0.034835
v -0.445683 0.054080 1.449577
v 1.370107 0.362918 -0.528256
v 1.034904 0.168088 1.114514
v -0.439917 0.096928 1.460228
v 1.944072 0.029149 -1.273090
v 1.625802 0.071033 -1.665835
v 1.593522 0.052969 -1.655668
v 1.674170 0.033160 -1.517036
v 1.644008 0.059232 -1.468107
v 1.355992 0.218467 -0.506238
v -0.478921 0.123405 1.825050
v 1.501042 0.086999 -1.622111
v 1.437134 0.079147 -1.629029
v -0.533968 0.112181 1.710675
v -0.150777 0.123120 -1.074764
v -0.668295 0.190809 1.883590
v 1.521176 0.419134 -0.116075
v 1.219313 0.089155 -1.285241
v 1.618483 0.377029 -0.356671
v 1.628280 0.384992 -0.281275
v -0.600809 0.026875 2.161066
v 2.159185 0.032179 -1.149489
v 1.602612 0.334687 -0.287749
v -0.668538 0.237569 1.878181
v 2.049208 0.019242 -1.224627
v 1.809016 0.289233 -0.362645
v 1.322496 0.113808 -1.606497
v -2.417497 0.195182 -0.247878
v -2.283858 0.271189 -0.128277
v 1.606148 0.311294 -0.439687
v 1.577057 0.340958 -0.343105
v 1.994947 0.025771 -1.331102
v -2.214513 0.252890 -0.123837
v -0.653269 0.028639 2.247053
v -1.273699 0.446659 1.221152
v -1.367259 0.436206 1.090741
v -1.326596 0.458561 1.267806
v 1.138482 0.135342 1.139588
v 1.513474 0.375357 -0.151435
v -1.457697 0.445884 1.220735
v -1.500528 0.436362 1.071310
v -1.210299 0.423120 1.104612
v -2.548233 0.174485 0.015611
v -0.870987 0.191242 0.846403
v -0.491795 0.344709 -1.477277
v -0.847957 0.116911 1.026217
v 1.339044 0.047525 -1.404411
v 1.428686 0.133580 -1.356167
v -0.552585 0.419607 -1.546967
v -0.643682 0.466520 -1.579906
v -0.498372 0.366488 -1.664383
v -0.648304 0.079372 0.831939
v 2.429989 0.026966 -0.980256
v 2.293319 0.029058 -1.083386
v 2.472866 0.026683 -0.917188
v 1.664257 0.059212 1.264312
v 1.668785 0.101735 1.250358
v -2.282734 0.021952 -1.170455
v -0.920370 0.184473 1.342955
v -2.656708 0.025869 -0.755334
v 1.628536 0.067839 1.171515
v -2.628439 0.023053 -1.046661
v 1.564285 0.225961 -0.526574
v -0.564672 0.073869 0.858639
v -0.658529 0.308847 -1.747731
v -2.498051 0.089977 -0.525154
v 1.346888 0.120435 -0.526780
v 2.487173 0.027470 -0.746302
v 1.564245 0.123959 1.138525
v 1.518733 0.121241 1.090076
v -2.478090 0.155527 -0.363968
v -2.486076 0.107659 -0.371106
v 1.375697 0.093580 -0.594714
v 2.222756 0.130746 -0.314467
v 1.756211 0.229183 -0.568598
v 1.652122 0.234104 -0.463039
v 0.812645 0.033279 -0.249678
v -2.424152 0.148555 -0.246628
v -0.525860 0.124781 0.885302
v 1.376775 0.129678 1.326306
v -2.590292 0.062036 -0.579226
v -2.599194 0.101265 -0.591565
v 1.169911 0.112602 -1.170514
v 1.529307 0.082826 1.369974
v -0.788615 0.118519 1.029702
v -1.927132 0.029613 -1.716896
v 1.200749 0.133902 -0.492251
v -0.755777 0.083918 0.996679
v 1.019633 0.047078 -1.092743
v -1.741672 0.027640 -1.834625
v -0.953374 0.223990 1.382822
v 1.089729 0.196719 -0.021009
v 1.438318 0.394063 -0.125111
v 1.774788 0.133953 -0.966875
v -2.052726 0.249318 -1.251555
v 1.518653 0.363073 -0.088105
v -0.762242 0.320199 -1.705936
v -0.699808 0.457270 -1.517459
v 1.018107 0.221271 -1.942223
v -2.517246 0.132529 -0.160696
v 1.399034 0.380158 0.003608
v -2.722349 0.027522 -0.535771
v 1.636491 0.340696 0.062455
v 1.335927 0.389516 -0.099005
v 0.800175 0.046187 -0.970753
v 1.020201 0.318000 -1.758847
v -2.532962 0.171844 -0.135337
v 1.300040 0.094181 -1.738478
v 1.018993 0.052526 -0.969170
v -0.789182 0.332980 -1.727400
v -0.768464 0.175853 -1.911727
v -0.661228 0.311498 -1.796678
v 1.676669 0.027729 -1.663380
v 1.714395 0.028302 -1.711703
v -2.114623 0.089040 -1.177926
v -2.481055 0.143409 -0.130983
v 1.391155 0.110867 1.578775
v -1.817039 0.094625 -0.835188
v 1.377786 0.408529 0.086768
v 1.628031 0.032296 -1.555882
v -1.221115 0.398477 1.124390
v 1.536439 0.092624 -1.740109
v -2.240286 0.152337 -1.020428
v 1.529315 0.125284 1.375830
v -2.373495 0.180918 -1.012176
v 1.610531 0.399940 0.145520
v 1.456951 0.037329 -1.618305
v 1.683246 0.376729 0.052466
v 1.810029 0.374133 0.208031
v 1.537172 0.436997 0.187181
v -0.831227 0.183813 -1.730455
v 1.157083 0.031117 -2.263362
v 1.430104 0.126580 -1.919942
v -0.855264 0.124640 -1.821346
v 1.521913 0.374297 0.173703
v 1.352778 0.028601 -2.223006
v 1.412826 0.422928 0.297286
v 1.448363 0.416804 0.195281
v -1.453815 0.430881 1.120598
v -2.263129 0.098153 -1.440601
v 0.973644 0.094786 -2.132862
v -2.313701 0.024215 -1.474326
v -1.424776 0.262863 -1.335124
v -2.191444 0.178460 -1.273534
v -2.790887 0.028957 0.016240
v -1.394398 0.409891 1.207802
v -2.747704 0.056543 -0.614569
v -2.725750 0.072307 -0.449595
v -2.746074 0.027274 -0.620626
v -2.731855 0.028440 -0.437028
v -0.693838 0.248821 -1.364729
v -2.905984 0.028730 -0.110047
v -2.323322 0.023759 -1.395550
v -2.820221 0.026483 -0.669074
v 0.948826 0.090788 0.898585
v 1.004294 0.128944 1.037396
v -2.301531 0.022026 -1.286566
v -2.284153 0.024287 -1.544347
v -0.504995 0.101605 -2.030252
v 1.707201 0.146151 -0.977506
v 0.949561 0.110985 -2.084036
v 1.058199 0.029545 -2.082824
v -0.662224 0.026042 -2.175422
v -0.653700 0.084124 -2.108434
v -0.829943 0.100042 -1.999806
v -0.746772 0.029273 -2.271111
v -2.834536 0.028322 -0.493191
v -0.863514 0.032420 -2.263983
v -0.947820 0.027488 -2.130082
v -2.751641 0.026698 -0.788812
v 0.909270 0.139440 -2.037403
v 1.176542 0.256259 0.220215
v -0.690436 0.028596 -2.342859
v -0.582584 0.028561 -2.285533
v 1.458499 0.094971 -0.705205
v -2.807520 0.028839 -0.231772
v 1.134346 0.185816 0.410298
v 0.885907 0.029583 0.828024
v 0.921518 0.134539 0.029413
v -2.301889 0.022034 -1.286046
v 0.937222 0.104757 0.275596
v 0.961410 0.031966 -0.363105
v 1.171228 0.084913 -0.485137
v -0.882818 0.126221 -1.712425
v -2.738421 0.049051 -0.142648
v 1.236548 0.112482 -0.598362
v 1.564511 0.028757 1.892799
v 1.505143 0.028742 1.924447
v -2.705771 0.105351 -0.143139
v -2.769356 0.079253 -0.152126
v -2.795503 0.028759 -0.125894
v 1.290329 0.028822 1.947325
v 1.034383 0.034657 -0.446760
v 1.227428 0.028897 1.817966
v 1.242447 0.060129 1.807235
v 1.060267 0.026659 1.985028
v -2.267812 0.021227 -1.205944
v 1.126988 0.028993 -2.237085
v 1.285909 0.025144 -2.260298
v 1.022407 0.108257 1.804088
v 1.185222 0.028628 -2.276402
v -2.263506 0.079458 -1.103234
v 0.741529 0.274785 1.558387
v 2.443412 0.031647 -0.219477
v -1.146654 0.276402 -1.518377
v -1.110941 0.390902 -1.433676
v -2.805604 0.029129 -0.084475
v -1.615260 0.374313 1.067589
v -1.640953 0.409729 1.094764
v 1.216835 0.028875 1.760214
v -1.452896 0.324708 1.435074
v -1.021050 0.190964 -1.566377
v -1.130734 0.255206 -1.559484
v -1.095154 0.214649 -1.544143
v -2.784361 0.028792 -0.168252
v 1.111134 0.117971 -0.584391
v 1.075256 0.156827 1.612702
v 0.914150 0.028429 -2.275220
v 0.764753 0.030060 0.051884
v -1.570540 0.244570 1.553947
v 1.189197 0.076912 1.720563
v 1.189743 0.033583 1.726169
v 1.216085 0.079612 -0.591898
v 1.013423 0.132538 1.666395
v 1.194690 0.028947 -1.993353
v 1.202579 0.065976 -2.003098
v 0.859247 0.034746 2.139828
v 1.066543 0.119003 1.610451
v -1.395693 0.407552 1.343813
v -2.899224 0.028607 0.036782
v -1.119284 0.251908 -1.489191
v 0.982546 0.041012 -0.549530
v 1.558966 0.029791 -2.054146
v 0.971460 0.028972 -2.165051
v -2.812700 0.029189 0.297422
v 1.066658 0.027725 1.868048
v 1.179299 0.030774 1.747089
v 0.840786 0.058964 -0.659002
v 0.833642 0.046843 -0.575750
v -1.809326 0.238548 1.339919
v 1.363488 0.095000 -1.943466
v 1.159204 0.029234 -2.019787
v -1.799772 0.467922 0.428953
v 1.141412 0.028579 1.881227
v -0.980858 0.323530 1.672873
v -0.851614 0.416672 1.658548
v -1.884984 0.464402 0.236482
v -1.889118 0.488750 0.435683
v -1.051414 0.347858 1.620414
v -1.952693 0.472029 0.492168
v -1.996082 0.421602 0.621805
v -1.027834 0.308793 1.609527
v 1.161704 0.028815 1.946805
v 1.758564 0.029845 -1.849599
v 1.750851 0.027833 -1.816237
v -1.037601 0.303645 1.520093
v 0.927432 0.128287 -0.605375
v -1.986514 0.467333 0.298553
v -0.846268 0.378563 1.636246
v 0.846864 0.031814 0.252404
v 1.741785 0.028689 -1.767018
v -1.024932 0.287744 1.527312
v 1.575557 0.149335 -1.816830
v 1.165600 0.024831 1.783982
v 1.709934 0.029916 -1.924102
v -1.212934 0.262742 1.690536
v 0.822179 0.430671 1.262112
v -1.841673 0.468982 0.493004
v 0.723647 0.424551 1.259951
v 0.691310 0.433984 1.333101
v -0.405893 0.015161 -1.012309
v -2.395210 0.022351 -1.234036
v -2.328738 0.021740 -1.174435
v 0.767979 0.414784 1.192386
v 0.456164 0.050784 -0.675990
v 0.829087 0.422904 1.202608
v -1.051875 0.029394 -2.101498
v -0.990891 0.120008 -1.916023
v 0.199880 0.536510 1.734070
v 0.079634 0.467776 1.569334
v -2.486701 0.023729 -1.272294
v -1.143771 0.034898 -2.085473
v -1.467036 0.139333 1.819529
v -1.462907 0.028881 -1.945914
v -0.112903 0.471420 1.696269
v 0.161053 0.460014 1.609801
v 0.290690 0.474490 1.816402
v 0.123206 0.471095 1.830990
v -0.932801 0.105665 -1.786229
v -1.416755 0.043879 1.605057
v -2.536376 0.022114 -1.256215
v -2.157447 0.315895 0.733737
v 0.027520 0.471403 1.827478
v -2.669480 0.026272 -0.821997
v -0.624743 0.101698 0.648240
v -1.150562 0.114855 -1.887898
v -0.933564 0.064193 -1.774831
v -0.881935 0.082242 -1.696710
v -1.505021 0.194934 0.568155
v -0.581199 0.024678 0.802947
v -1.006117 0.114607 -1.690302
v -0.995889 0.070935 -1.693607
v -2.236866 0.234210 0.870283
v -0.595263 0.066576 0.859028
v 1.388058 0.450326 0.643765
v 0.782535 0.207472 0.945003
v 1.444153 0.461768 0.676082
v 0.770564 0.346366 1.391886
v 0.887080 0.412136 -1.531504
v 0.693250 0.378747 -1.563627
v 0.708740 0.380521 -1.500552
v 0.768989 0.377906 -1.417462
v -1.747360 0.426215 0.973234
v -1.718181 0.396577 0.961179
v -1.674584 0.382754 0.871551
v -1.865109 0.361729 1.044376
v 0.575904 0.364220 -1.474286
v 1.398769 0.065473 -1.919427
v 0.596440 0.332548 -1.393872
v 0.364678 0.339375 -1.459462
v -1.203378 0.091229 -1.747550
v -2.584685 0.023155 -1.111557
v 1.292334 0.452940 0.679168
v 0.375718 0.184227 -0.882762
v 1.299718 0.451327 0.916417
v 1.336799 0.444181 0.836753
v 0.587059 0.401043 1.370174
v 0.474464 0.198671 1.211184
v 1.388491 0.095424 -1.890903
v 0.260991 0.276922 -1.363462
v 0.316041 0.267631 -1.355979
v 0.347037 0.189260 -1.268236
v 0.110850 0.276966 -1.342145
v 1.282341 0.046832 -1.907572
v 0.999614 0.380880 -1.590959
v 1.190191 0.446725 0.909666
v 1.190377 0.440958 1.012769
v -1.098756 0.088207 1.301931
v 0.603946 0.039729 0.692235
v -0.817592 0.153093 -1.461767
v -0.902027 0.095616 -1.579334
v 0.422106 0.053598 0.687318
v -2.674669 0.024931 -1.005249
v 0.838238 0.246007 -1.231821
v -2.022486 0.161549 0.839401
v 0.505508 0.228915 1.061385
v -2.746709 0.026053 -0.906114
v 1.245003 0.458807 0.849791
v 1.281281 0.450143 0.748449
v -1.613222 0.202831 0.686607
v 0.616401 0.234309 1.468640
v 1.150050 0.086712 -1.967875
v 1.396518 0.466397 0.672790
v -1.359330 0.028629 2.010263
v -1.720515 0.027933 1.890749
v -1.000968 0.143224 -1.554587
v 1.033375 0.173745 -1.940033
v -1.690914 0.406227 -0.661093
v 1.627944 0.391331 0.331856
v -1.552861 0.100595 -1.781679
v -1.150273 0.054639 1.407405
v -1.423606 0.231258 -0.521587
v 1.537433 0.140892 -1.746014
v -1.213828 0.144140 1.915050
v 1.614397 0.094671 -1.736914
v -1.232614 0.076634 2.038826
v -1.364527 0.072823 2.009307
v 1.435058 0.093780 -1.826511
v 0.812600 0.153205 1.891171
v 0.379417 0.193309 -1.178691
v 0.488676 0.126262 -0.774214
v 0.608543 0.218017 2.016560
v 0.530079 0.242491 1.721516
v -1.408173 0.194361 -0.392599
v -1.659487 0.148105 1.709553
v -1.895369 0.169686 0.863961
v 0.650419 0.195207 1.606527
v -2.069809 0.125678 1.005035
v 0.666944 0.154737 1.907470
v 1.558282 0.359930 0.639600
v -1.571912 0.289849 -0.419226
v -2.487604 0.115521 0.648217
v -2.497808 0.072857 0.617971
v 1.429823 0.270336 0.586872
v -2.510408 0.100609 0.604851
v -1.603557 0.069107 1.743743
v 1.269084 0.336451 0.617977
v 0.256129 0.472697 1.739087
v 0.210625 0.342786 1.474476
v 1.500579 0.256665 0.446463
v -2.571600 0.028477 0.623715
v -1.444870 0.178855 -0.334824
v 0.033638 0.147943 0.884434
v 0.018454 0.348963 1.282045
v -2.554773 0.028327 0.704120
v -1.669724 0.029269 1.942436
v -2.671092 0.028296 0.602214
v 0.154948 0.206256 -1.139058
v 1.341671 0.203502 0.505221
v 0.265066 0.322216 -1.563303
v -1.696994 0.029736 -1.854309
v 1.006811 0.042772 0.445421
v -1.433948 0.028524 2.048960
v 0.075751 0.328300 -1.466747
v 0.156916 0.369401 -1.585708
v 1.560156 0.228178 0.533248
v -2.145690 0.107234 0.956583
v 0.113883 0.185488 -2.171675
v -0.408712 0.218613 2.133143
v 0.087279 0.407287 1.937839
v 0.440735 0.246132 1.541460
v -1.171789 0.052141 -0.105716
v 0.021278 0.421696 1.860013
v -2.226037 0.093256 1.045730
v 0.597125 0.323325 -1.586761
v 1.284588 0.204017 0.561123
v 0.543078 0.262229 -1.626468
v -2.613939 0.028994 0.790153
v -1.235558 0.115676 -0.056639
v 0.558265 0.226425 -1.582823
v -2.556371 0.031695 0.957986
v -1.603236 0.351044 0.140600
v 0.625939 0.296673 -1.542401
v -0.689874 0.204867 2.007419
v -0.726424 0.188922 1.971069
v 0.256024 0.411943 1.997998
v -0.796282 0.227116 2.016984
v -0.500439 0.117878 2.298196
v -0.313070 0.031451 2.468071
v 0.909162 0.189118 -2.024169
v -0.647653 0.162453 1.994393
v -0.648101 0.120436 1.985675
v 0.092342 0.300697 -1.716997
v 0.179000 0.251960 -1.721803
v 1.427107 0.435242 0.693347
v 0.062611 0.257437 -1.693403
v 0.019653 0.271738 -1.715950
v 0.072080 0.385248 1.902475
v 0.076333 0.053894 -0.695903
v 0.406705 0.248455 -1.679702
v -0.506629 0.085967 2.257278
v -0.571201 0.025143 2.219820
v -0.698789 0.168700 2.035429
v -0.226037 0.471827 1.722842
v -0.605418 0.343196 -1.359694
v 1.513006 0.172359 1.082797
v -0.755530 0.179023 2.107956
v -0.768681 0.143048 2.092756
v 2.678384 0.028603 0.048204
v 0.158084 0.297295 -1.615577
v -0.632191 0.266690 -1.276998
v 0.182048 0.345731 -1.644318
v 0.342519 0.180923 1.324961
v 0.320847 0.312784 -1.601400
v -0.828488 0.459347 1.509037
v -0.827937 0.464888 1.602817
v -0.194421 0.466972 1.612409
v 2.637388 0.028757 0.018338
v -1.256635 0.127133 -0.223382
v -1.380547 0.237887 0.134445
v 0.381735 0.244975 -1.552944
v -0.422026 0.111359 -1.075620
v -1.421116 0.233064 0.086379
v -0.806515 0.416410 1.419366
v -0.672555 0.259525 1.160666
v -1.198507 0.093331 0.095859
v -0.658921 0.029891 2.349872
v -0.740480 0.025029 2.393986
v 0.379512 0.045257 0.720168
v 1.227559 0.427723 0.796911
v -0.623241 0.308256 1.289329
v -0.775573 0.027226 2.386331
v -0.761540 0.427109 1.630842
v -0.489110 0.028795 2.375836
v -0.548829 0.025014 2.351914
v -0.772235 0.246191 -1.335827
v -0.269825 0.100946 -1.119943
v 1.916008 0.202055 -0.354947
v 1.795340 0.140021 -0.429387
v 0.265628 0.177892 -2.100374
v 1.034698 0.038000 0.621017
v -0.398939 0.038647 -1.020773
v -1.158516 0.030676 -0.042348
v -0.500426 0.028772 2.445245
v -1.183180 0.039911 0.099903
v -0.701031 0.030196 2.379898
v 0.663734 0.101373 -2.168911
v -0.219173 0.031572 -0.991413
v -0.185688 0.028811 2.513180
v 2.277689 0.130352 -0.135724
v 0.101868 0.030272 2.585199
v 2.283045 0.092397 -0.137823
v -0.216391 0.329110 1.420767
v 2.180964 0.153562 -0.205796
v 1.149692 0.038047 0.526828
v -0.283991 0.353429 1.878339
v -1.491241 0.444335 0.966505
v -1.498342 0.450295 0.844691
v -1.003164 0.028201 2.256690
v -1.349687 0.398441 0.821279
v -0.471532 0.106558 -1.005511
v 2.051043 0.207910 0.021967
v -1.394931 0.208365 0.448592
v 2.060465 0.288757 0.203965
v -1.193159 0.028974 2.157254
v 0.333756 0.040685 1.039224
v 0.777435 0.031201 -2.316449
v -1.103717 0.028940 2.222976
v 2.056911 0.248790 0.021779
v 0.621744 0.028841 -2.418954
v -0.459065 0.045186 -0.941881
v 2.454504 0.065705 -0.219466
v 2.507702 0.029298 -0.440892
v 0.313041 0.097091 -2.306347
v -1.419595 0.385063 0.734963
v -1.971707 0.291579 1.145889
v 2.242438 0.084006 -0.309366
v 0.189830 0.124706 -2.376136
v 2.347198 0.065334 -0.143074
v 1.684783 0.129660 0.921230
v -1.258211 0.191317 0.558344
v 0.190330 0.085510 -2.378438
v -1.499110 0.360673 0.717398
v -1.759863 0.324713 1.178458
v 0.288222 0.044096 1.117809
v -1.947067 0.246438 1.139259
v -1.507423 0.416023 0.811983
v -1.869986 0.241184 1.293777
v 2.607630 0.028757 -0.123754
v 2.548115 0.028539 -0.132494
v -1.733909 0.280247 1.176361
v -1.454692 0.266623 0.643391
v -1.828547 0.189122 1.330360
v -0.726398 0.260066 1.954861
v 2.456535 0.028551 -0.176848
v 2.177203 0.111214 -0.214564
v -0.406058 0.015267 -1.012280
v 0.935100 0.028797 2.124677
v 0.970481 0.028697 2.106731
v -0.978671 0.472883 -1.273658
v 2.087182 0.028903 1.226804
v 2.052589 0.028873 1.327192
v -1.064398 0.522024 -1.342060
v 0.266087 0.136412 -2.099850
v 0.119645 0.146368 -2.152136
v 2.504571 0.078473 0.017601
v -1.142829 0.521632 -1.273155
v -1.101751 0.469468 -1.397006
v 0.345022 0.031054 2.605284
v 2.450675 0.074474 -0.163559
v 2.462487 0.028706 -0.206222
v 2.502371 0.060651 -0.124085
v 2.352025 0.106794 -0.141121
v -1.608048 0.242499 0.730429
v -1.261916 0.532300 -1.173662
v 0.775153 0.033273 2.293884
v -1.063874 0.033252 0.464241
v -1.137988 0.466910 -1.095644
v 0.840431 0.028520 2.145981
v 0.828251 0.033489 2.129079
v -1.290460 0.452837 -1.001029
v 2.516423 0.028602 0.003914
v -1.404692 0.195061 0.564479
v -1.319871 0.471762 -1.228972
v -1.386134 0.462103 -1.153939
v -1.445330 0.464358 -1.177580
v 0.851239 0.021873 2.219658
v 2.473750 0.028786 -0.125405
v 1.801353 0.251057 -1.303777
v 1.436891 0.394433 -1.284626
v 0.593911 0.028723 2.472119
v -1.054336 0.470249 -1.367881
v -0.833359 0.337940 -1.219453
v -0.579253 0.032549 0.568064
v 0.429107 0.027527 2.591766
v 2.680578 0.028757 0.277573
v -1.080650 0.390490 -1.396558
v -1.318273 0.388174 -1.265229
v -1.249416 0.039386 0.453754
v -1.171227 0.035490 0.477482
v 1.482667 0.402111 -0.954853
v -1.301563 0.351531 -1.236226
v -1.520318 0.311416 -1.255310
v -1.482639 0.276947 -1.239937
vt 0.211044 0.472474
vt 0.160077 0.488530
vt 0.169208 0.477856
vt 0.328926 0.074240
vt 0.319919 0.038305
vt 0.372025 0.091652
vt 0.165527 0.361608
vt 0.169763 0.376636
vt 0.157789 0.374759
vt 0.317576 0.060089
vt 0.126665 0.360670
vt 0.164639 0.345432
vt 0.208534 0.370165
vt 0.913836 0.779021
vt 0.880462 0.752949
vt 0.922325 0.747614
vt 0.150516 0.478270
vt 0.122914 0.457557
vt 0.327821 0.032585
vt 0.366175 0.033981
vt 0.127283 0.833116
vt 0.160899 0.870890
vt 0.144269 0.855903
vt 0.865841 0.498843
vt 0.862986 0.518253
vt 0.868162 0.504129
vt 0.173274 0.356295
vt 0.871372 0.533667
vt 0.873901 0.535120
vt 0.183966 0.357850
vt 0.134218 0.480525
vt 0.135418 0.803716
vt 0.294577 0.048209
vt 0.311385 0.048877
vt 0.181968 0.341043
vt 0.182106 0.345008
vt 0.607454 0.821459
vt 0.583960 0.808213
vt 0.593324 0.791042
vt 0.266531 0.469815
vt 0.550362 0.836206
vt 0.577506 0.842807
vt 0.557493 0.804868
vt 0.565029 0.795973
vt 0.148444 0.414772
vt 0.265122 0.447708
vt 0.151345 0.795319
vt 0.263587 0.460460
vt 0.583561 0.791353
vt 0.835296 0.446004
vt 0.823632 0.439788
vt 0.828823 0.430418
vt 0.281362 0.767385
vt 0.242305 0.828028
vt 0.584096 0.758129
vt 0.235353 0.768091
vt 0.194454 0.744939
vt 0.622756 0.389935
vt 0.561367 0.323025
vt 0.609322 0.284361
vt 0.832720 0.430911
vt 0.210227 0.310194
vt 0.231494 0.329120
vt 0.904822 0.713069
vt 0.909005 0.721674
vt 0.886886 0.698578
vt 0.178209 0.335074
vt 0.929888 0.787183
vt 0.930814 0.765079
vt 0.602961 0.267977
vt 0.914597 0.732105
vt 0.473311 0.078569
vt 0.419870 0.028309
vt 0.485575 0.026173
vt 0.594900 0.252843
vt 0.213803 0.352769
vt 0.291069 0.919978
vt 0.286115 0.898772
vt 0.286595 0.903353
vt 0.553556 0.751169
vt 0.248811 0.344748
vt 0.905448 0.702788
vt 0.600325 0.736347
vt 0.225609 0.882693
vt 0.227195 0.893999
vt 0.253790 0.873299
vt 0.226230 0.883724
vt 0.500127 0.355179
vt 0.106939 0.276555
vt 0.540894 0.703379
vt 0.331766 0.726757
vt 0.339284 0.726109
vt 0.329776 0.715260
vt 0.190253 0.267254
vt 0.822358 0.454411
vt 0.264679 0.915903
vt 0.230459 0.911808
vt 0.259158 0.909799
vt 0.879597 0.481334
vt 0.863679 0.489706
vt 0.866241 0.490278
vt 0.266779 0.886133
vt 0.271606 0.901758
vt 0.270236 0.896561
vt 0.307249 0.772900
vt 0.232320 0.299141
vt 0.316517 0.722223
vt 0.314946 0.742697
vt 0.845230 0.648542
vt 0.872491 0.636966
vt 0.242778 0.894043
vt 0.254126 0.738649
vt 0.271173 0.325379
vt 0.323022 0.550755
vt 0.339820 0.499545
vt 0.334155 0.568117
vt 0.932010 0.661654
vt 0.924073 0.681493
vt 0.918291 0.686487
vt 0.223096 0.288724
vt 0.278090 0.332020
vt 0.936644 0.640536
vt 0.310996 0.483563
vt 0.322189 0.474878
vt 0.274359 0.290262
vt 0.307661 0.314807
vt 0.248442 0.298077
vt 0.864533 0.469512
vt 0.823012 0.481979
vt 0.319621 0.429277
vt 0.668634 0.533363
vt 0.871083 0.602183
vt 0.895252 0.539293
vt 0.982305 0.522723
vt 0.623762 0.892575
vt 0.617918 0.896076
vt 0.620621 0.903322
vt 0.604595 0.892977
vt 0.842787 0.498370
vt 0.325096 0.759109
vt 0.628064 0.865046
vt 0.668726 0.760578
vt 0.690561 0.737484
vt 0.681826 0.779937
vt 0.258348 0.272258
vt 0.292201 0.285603
vt 0.228433 0.271336
vt 0.243008 0.262701
vt 0.230990 0.257754
vt 0.712885 0.767511
vt 0.707926 0.736747
vt 0.709476 0.750087
vt 0.590730 0.897929
vt 0.602444 0.910723
vt 0.569076 0.880832
vt 0.312805 0.677587
vt 0.630140 0.243987
vt 0.626917 0.274998
vt 0.616964 0.265298
vt 0.205213 0.177677
vt 0.238680 0.208024
vt 0.238004 0.220992
vt 0.202500 0.227473
vt 0.551553 0.859392
vt 0.576017 0.853761
vt 0.626998 0.246777
vt 0.225691 0.250008
vt 0.202904 0.237320
vt 0.290842 0.449609
vt 0.638344 0.171491
vt 0.288123 0.456139
vt 0.634470 0.890954
vt 0.241223 0.408755
vt 0.225874 0.415674
vt 0.661810 0.766527
vt 0.653584 0.208173
vt 0.185965 0.225426
vt 0.807541 0.473536
vt 0.627041 0.892731
vt 0.647515 0.193712
vt 0.707780 0.781737
vt 0.219369 0.429883
vt 0.537633 0.840267
vt 0.536278 0.846138
vt 0.668531 0.185934
vt 0.672079 0.209734
vt 0.640024 0.894620
vt 0.367038 0.650625
vt 0.788631 0.481653
vt 0.796735 0.449670
vt 0.771064 0.480585
vt 0.174191 0.251263
vt 0.501947 0.849879
vt 0.512910 0.869389
vt 0.508682 0.861930
vt 0.723464 0.775179
vt 0.727263 0.760092
vt 0.734483 0.764921
vt 0.507082 0.806279
vt 0.492601 0.848850
vt 0.481878 0.839324
vt 0.652829 0.148575
vt 0.663708 0.140058
vt 0.651519 0.149322
vt 0.450619 0.852311
vt 0.134833 0.246160
vt 0.162541 0.243440
vt 0.717599 0.764234
vt 0.631331 0.899613
vt 0.745475 0.793583
vt 0.632143 0.917036
vt 0.230481 0.706125
vt 0.511611 0.786276
vt 0.129072 0.220788
vt 0.140263 0.224472
vt 0.732565 0.730086
vt 0.686171 0.928575
vt 0.657507 0.919746
vt 0.454057 0.133936
vt 0.478795 0.142518
vt 0.479459 0.159530
vt 0.146981 0.192655
vt 0.215037 0.677510
vt 0.233738 0.681485
vt 0.230644 0.702509
vt 0.529037 0.813841
vt 0.518303 0.256851
vt 0.521892 0.309287
vt 0.492909 0.279802
vt 0.719996 0.713335
vt 0.758719 0.933567
vt 0.745087 0.937605
vt 0.476844 0.183558
vt 0.656242 0.750396
vt 0.067750 0.292511
vt 0.091991 0.276929
vt 0.087108 0.277343
vt 0.908634 0.529427
vt 0.891314 0.536028
vt 0.904712 0.525874
vt 0.685820 0.783007
vt 0.646178 0.743372
vt 0.885436 0.535251
vt 0.640199 0.751180
vt 0.709160 0.810196
vt 0.705735 0.786769
vt 0.108985 0.277170
vt 0.121985 0.258848
vt 0.120338 0.257210
vt 0.603337 0.642344
vt 0.256411 0.676167
vt 0.713224 0.935425
vt 0.689880 0.846148
vt 0.137350 0.246951
vt 0.538325 0.315624
vt 0.562711 0.252836
vt 0.547864 0.314530
vt 0.548111 0.198685
vt 0.879295 0.484642
vt 0.520691 0.773432
vt 0.900575 0.495903
vt 0.628949 0.723576
vt 0.671596 0.873214
vt 0.515242 0.748685
vt 0.527894 0.273300
vt 0.548578 0.186093
vt 0.526369 0.261726
vt 0.676351 0.648748
vt 0.740995 0.730605
vt 0.198245 0.692752
vt 0.645082 0.840994
vt 0.740597 0.721221
vt 0.725948 0.717921
vt 0.757911 0.822835
vt 0.187982 0.674116
vt 0.781157 0.910935
vt 0.214143 0.657725
vt 0.131286 0.224912
vt 0.741061 0.688858
vt 0.071931 0.256620
vt 0.051759 0.433156
vt 0.083528 0.416249
vt 0.096188 0.430770
vt 0.905453 0.495398
vt 0.777520 0.710505
vt 0.464941 0.859632
vt 0.435234 0.873300
vt 0.713253 0.697659
vt 0.529986 0.739445
vt 0.180628 0.675157
vt 0.191180 0.699654
vt 0.108406 0.200300
vt 0.111599 0.408314
vt 0.187411 0.391611
vt 0.180091 0.402799
vt 0.905937 0.439181
vt 0.743100 0.677111
vt 0.450634 0.165785
vt 0.477129 0.181243
vt 0.169412 0.693788
vt 0.524143 0.846065
vt 0.788498 0.698904
vt 0.787338 0.720128
vt 0.495495 0.843026
vt 0.784431 0.684205
vt 0.825486 0.712854
vt 0.115481 0.372604
vt 0.087324 0.353876
vt 0.776602 0.681732
vt 0.496985 0.875271
vt 0.521412 0.872077
vt 0.181727 0.661993
vt 0.170116 0.669680
vt 0.106271 0.199808
vt 0.762045 0.683005
vt 0.079369 0.242260
vt 0.195394 0.743219
vt 0.769610 0.671412
vt 0.752976 0.668436
vt 0.032744 0.447910
vt 0.043053 0.432641
vt 0.140265 0.529488
vt 0.042966 0.520201
vt 0.119536 0.172160
vt 0.060343 0.265431
vt 0.057938 0.263162
vt 0.075288 0.242649
vt 0.461562 0.145089
vt 0.442469 0.150682
vt 0.058574 0.418497
vt 0.777613 0.653508
vt 0.043068 0.265775
vt 0.081195 0.403266
vt 0.721415 0.625884
vt 0.763935 0.489960
vt 0.628918 0.827271
vt 0.598779 0.878968
vt 0.155657 0.696364
vt 0.166122 0.734620
vt 0.137957 0.742254
vt 0.055545 0.238743
vt 0.122879 0.727017
vt 0.125966 0.698195
vt 0.162594 0.739836
vt 0.137119 0.759157
vt 0.159108 0.763809
vt 0.633572 0.773120
vt 0.086437 0.178590
vt 0.088709 0.204912
vt 0.178780 0.651485
vt 0.618216 0.735283
vt 0.964469 0.424424
vt 0.098785 0.195478
vt 0.959817 0.412799
vt 0.931974 0.383844
vt 0.609074 0.693673
vt 0.609966 0.673914
vt 0.624016 0.716788
vt 0.097472 0.395342
vt 0.104711 0.380698
vt 0.901494 0.376292
vt 0.884110 0.372321
vt 0.903993 0.351148
vt 0.105498 0.184896
vt 0.426075 0.150273
vt 0.409641 0.141090
vt 0.408455 0.131086
vt 0.614720 0.729029
vt 0.603093 0.720751
vt 0.172480 0.614722
vt 0.154889 0.603377
vt 0.165013 0.603179
vt 0.588764 0.698997
vt 0.098419 0.199367
vt 0.101848 0.191910
vt 0.892017 0.403456
vt 0.872710 0.402246
vt 0.867838 0.402543
vt 0.156510 0.594183
vt 0.165027 0.594477
vt 0.908370 0.396364
vt 0.895867 0.404982
vt 0.481627 0.116083
vt 0.434627 0.914454
vt 0.407627 0.955491
vt 0.434115 0.907135
vt 0.867948 0.389927
vt 0.826142 0.370416
vt 0.892464 0.305613
vt 0.409846 0.966773
vt 0.441399 0.982573
vt 0.427505 0.982107
vt 0.469928 0.918675
vt 0.412194 0.972337
vt 0.477240 0.126250
vt 0.891170 0.372221
vt 0.106302 0.155956
vt 0.149833 0.129272
vt 0.374314 0.940772
vt 0.394461 0.927785
vt 0.393379 0.927250
vt 0.400546 0.916388
vt 0.892159 0.399259
vt 0.460559 0.914901
vt 0.553694 0.699371
vt 0.411371 0.917316
vt 0.258757 0.229667
vt 0.282374 0.197810
vt 0.296620 0.211319
vt 0.282812 0.181520
vt 0.291549 0.158240
vt 0.295090 0.192476
vt 0.632449 0.593161
vt 0.906188 0.394478
vt 0.250141 0.206681
vt 0.913516 0.368617
vt 0.603858 0.145285
vt 0.599794 0.151889
vt 0.583323 0.133072
vt 0.568366 0.139529
vt 0.567144 0.131482
vt 0.651729 0.112523
vt 0.580361 0.189387
vt 0.557722 0.156349
vt 0.899040 0.401824
vt 0.894743 0.392348
vt 0.555679 0.148957
vt 0.073406 0.384536
vt 0.529670 0.948427
vt 0.517669 0.960930
vt 0.498715 0.909372
vt 0.575162 0.704327
vt 0.565232 0.688167
vt 0.654791 0.616368
vt 0.812925 0.424421
vt 0.807020 0.434153
vt 0.522566 0.892682
vt 0.092299 0.383615
vt 0.099450 0.388514
vt 0.803483 0.394793
vt 0.799323 0.414147
vt 0.795369 0.430173
vt 0.114805 0.681549
vt 0.142341 0.668042
vt 0.666165 0.573991
vt 0.485207 0.971154
vt 0.549179 0.106367
vt 0.504460 0.724062
vt 0.685012 0.582483
vt 0.074546 0.610499
vt 0.121064 0.642270
vt 0.103631 0.668360
vt 0.574318 0.081238
vt 0.784217 0.265234
vt 0.758447 0.282529
vt 0.741736 0.277106
vt 0.164809 0.653317
vt 0.282764 0.135322
vt 0.790127 0.274323
vt 0.780561 0.241936
vt 0.805054 0.267005
vt 0.060754 0.298804
vt 0.045495 0.332602
vt 0.766249 0.230463
vt 0.728764 0.232069
vt 0.713710 0.215034
vt 0.183354 0.647464
vt 0.528990 0.325777
vt 0.503043 0.336880
vt 0.366403 0.239007
vt 0.532903 0.309842
vt 0.166144 0.632646
vt 0.169655 0.632807
vt 0.295478 0.103105
vt 0.168344 0.650452
vt 0.526805 0.913270
vt 0.528414 0.934133
vt 0.754580 0.463869
vt 0.830085 0.590824
vt 0.834877 0.594943
vt 0.823113 0.594353
vt 0.445278 0.836064
vt 0.418502 0.826043
vt 0.427272 0.815950
vt 0.049415 0.381013
vt 0.041650 0.373710
vt 0.444643 0.807928
vt 0.465647 0.909656
vt 0.414312 0.802160
vt 0.814518 0.399671
vt 0.387191 0.780305
vt 0.427804 0.787017
vt 0.049462 0.347818
vt 0.787356 0.379463
vt 0.466028 0.903946
vt 0.451384 0.894127
vt 0.515355 0.188314
vt 0.844318 0.540579
vt 0.825629 0.528317
vt 0.838110 0.514146
vt 0.218142 0.622737
vt 0.192089 0.627908
vt 0.179923 0.613924
vt 0.695731 0.482566
vt 0.725237 0.417551
vt 0.660583 0.461464
vt 0.472156 0.766552
vt 0.040626 0.324355
vt 0.739363 0.388988
vt 0.323588 0.138132
vt 0.431806 0.903924
vt 0.829026 0.544233
vt 0.819520 0.564115
vt 0.795853 0.368162
vt 0.034328 0.303782
vt 0.416819 0.898328
vt 0.046250 0.288533
vt 0.130023 0.616625
vt 0.428604 0.911054
vt 0.416408 0.902298
vt 0.506070 0.107499
vt 0.365312 0.191773
vt 0.520094 0.164320
vt 0.733779 0.363646
vt 0.778823 0.334749
vt 0.523575 0.069197
vt 0.507242 0.885465
vt 0.496314 0.884506
vt 0.811608 0.671866
vt 0.798420 0.631341
vt 0.865550 0.332868
vt 0.475881 0.890650
vt 0.811870 0.342442
vt 0.491191 0.679411
vt 0.464041 0.685933
vt 0.076657 0.579987
vt 0.856646 0.290275
vt 0.812972 0.318815
vt 0.736057 0.589611
vt 0.371002 0.112348
vt 0.378789 0.136061
vt 0.375187 0.164635
vt 0.344262 0.148055
vt 0.068714 0.592150
vt 0.225370 0.358849
vt 0.233626 0.374694
vt 0.486079 0.058915
vt 0.262449 0.392601
vt 0.224703 0.115980
vt 0.233025 0.112188
vt 0.808129 0.602197
vt 0.841003 0.611944
vt 0.849172 0.310134
vt 0.496982 0.063815
vt 0.813216 0.577161
vt 0.794459 0.578775
vt 0.563241 0.054388
vt 0.231207 0.117503
vt 0.206818 0.102485
vt 0.223131 0.111757
vt 0.385924 0.748741
vt 0.410961 0.737683
vt 0.395333 0.752520
vt 0.263940 0.381296
vt 0.744808 0.314192
vt 0.495929 0.032616
vt 0.638092 0.374413
vt 0.691215 0.313434
vt 0.780928 0.600870
vt 0.362901 0.782061
vt 0.052253 0.569405
vt 0.425532 0.730284
vt 0.367023 0.727824
vt 0.340074 0.776684
vt 0.346777 0.744458
vt 0.048237 0.561265
vt 0.339834 0.733962
vt 0.338684 0.110349
vt 0.509211 0.031521
vt 0.817759 0.625348
vt 0.555599 0.044342
vt 0.397109 0.694522
vt 0.267967 0.845290
vt 0.320165 0.109822
vt 0.849646 0.635714
vt 0.288877 0.429561
vt 0.723657 0.143833
vt 0.787430 0.223794
vt 0.718950 0.187165
vt 0.495499 0.660006
vt 0.307025 0.386345
vt 0.321613 0.086978
vt 0.392294 0.814213
vt 0.235947 0.083494
vt 0.234992 0.102315
vt 0.265524 0.066229
vt 0.411968 0.809301
vt 0.403284 0.817253
vt 0.399080 0.804204
vt 0.776752 0.585306
vt 0.652706 0.127260
vt 0.654831 0.127299
vt 0.663930 0.126442
vt 0.340793 0.638742
vt 0.378964 0.789250
vt 0.397539 0.909806
vt 0.741401 0.547200
vt 0.723623 0.115880
vt 0.326139 0.317476
vt 0.366279 0.270617
vt 0.825491 0.243398
vt 0.316683 0.770649
vt 0.315985 0.782284
vt 0.833209 0.590855
vt 0.687867 0.127683
vt 0.444198 0.621222
vt 0.767344 0.227934
vt 0.666620 0.136966
vt 0.701655 0.093729
vt 0.690625 0.109508
vt 0.715808 0.122220
vt 0.838181 0.558449
vt 0.776685 0.229219
vt 0.698747 0.122702
vt 0.331936 0.369263
vt 0.365804 0.622471
vt 0.875468 0.579494
vt 0.661455 0.112122
vt 0.665742 0.106832
vt 0.338984 0.775289
vt 0.364870 0.794962
vt 0.337870 0.786516
vt 0.704822 0.236646
vt 0.332774 0.793416
vt 0.333028 0.381839
vt 0.253847 0.639982
vt 0.263810 0.622286
vt 0.663096 0.125622
vt 0.324190 0.614419
vt 0.244667 0.627155
vt 0.739267 0.495178
vt 0.815110 0.549136
vt 0.326061 0.596954
vt 0.695918 0.077736
vt 0.699351 0.084703
vt 0.590691 0.171113
vt 0.587627 0.236109
vt 0.351954 0.347409
vt 0.318631 0.319904
vt 0.614723 0.163311
vt 0.728477 0.110016
vt 0.736896 0.099861
vt 0.658415 0.449589
vt 0.279469 0.599828
vt 0.287053 0.597220
vt 0.368352 0.810513
vt 0.717963 0.107429
vt 0.345138 0.375183
vt 0.756919 0.800364
vt 0.726934 0.794807
vt 0.292840 0.853433
vt 0.358538 0.351844
vt 0.338030 0.605392
vt 0.689746 0.074554
vt 0.830018 0.807854
vt 0.765493 0.118170
vt 0.349201 0.900296
vt 0.396713 0.906839
vt 0.826318 0.805026
vt 0.811688 0.807223
vt 0.742443 0.569087
vt 0.584576 0.065332
vt 0.414808 0.168509
vt 0.336664 0.587585
vt 0.641842 0.066008
vt 0.824406 0.760914
vt 0.419079 0.211700
vt 0.398407 0.186036
vt 0.713445 0.565749
vt 0.318812 0.578793
vt 0.581011 0.066608
vt 0.829046 0.763872
vt 0.602545 0.057135
vt 0.663099 0.268183
vt 0.349760 0.930956
vt 0.623414 0.059072
vt 0.687099 0.398222
vt 0.315428 0.926994
vt 0.855386 0.743162
vt 0.303732 0.923106
vt 0.601275 0.154239
vt 0.563031 0.057254
vt 0.281901 0.879186
vt 0.805305 0.824375
vt 0.803354 0.822913
vt 0.840324 0.836704
vt 0.836617 0.831977
vt 0.820588 0.869987
vt 0.255121 0.876420
vt 0.382474 0.210640
vt 0.398883 0.214535
vt 0.395583 0.190426
vt 0.402173 0.107553
vt 0.375488 0.098131
vt 0.688315 0.383972
vt 0.872518 0.836443
vt 0.859218 0.825755
vt 0.411085 0.089899
vt 0.413200 0.085050
vt 0.406052 0.114242
vt 0.400656 0.083631
vt 0.386937 0.033122
vt 0.807792 0.805483
vt 0.902466 0.316195
vt 0.905267 0.323037
vt 0.836884 0.811099
vt 0.966776 0.563731
vt 0.959458 0.581628
vt 0.956156 0.600145
vt 0.293959 0.849381
vt 0.177084 0.585472
vt 0.174163 0.560173
vt 0.198917 0.584669
vt 0.879399 0.807922
vt 0.176152 0.588687
vt 0.980035 0.555842
vt 0.382339 0.144576
vt 0.844091 0.826165
vt 0.848266 0.827278
vt 0.841764 0.830620
vt 0.272657 0.839684
vt 0.841063 0.814287
vt 0.894467 0.267736
vt 0.419810 0.312953
vt 0.400020 0.272081
vt 0.381186 0.231491
vt 0.380404 0.251050
vt 0.887574 0.302875
vt 0.198852 0.535828
vt 0.169109 0.532779
vt 0.370745 0.201045
vt 0.873396 0.805931
vt 0.863016 0.830661
vt 0.853125 0.820840
vt 0.901911 0.292130
vt 0.891487 0.301950
vt 0.144681 0.508273
vt 0.155733 0.514053
vt 0.164961 0.587538
vt 0.153571 0.533294
vt 0.903015 0.820022
vt 0.893720 0.819736
vt 0.552875 0.843193
vt 0.189460 0.501345
vt 0.923683 0.800045
vt 0.875419 0.177451
vt 0.788964 0.127088
vt 0.837946 0.152190
vt 0.885628 0.189341
vt 0.895141 0.226004
vt 0.237173 0.591669
vt 0.236011 0.615356
vt 0.162877 0.588976
vt 0.174024 0.588706
vt 0.154065 0.537075
vt 0.391630 0.295148
vt 0.405751 0.299120
vt 0.139540 0.508048
vt 0.163053 0.533889
vt 0.148780 0.508941
usemtl Material.001
s off
f 2/1 3/2 4/3
f 7/4 8/5 706/6
f 17/7 10/8 12/9
f 7/4 11/10 8/5
f 17/7 18/11 19/12
f 10/8 17/7 21/13
f 24/14 41/15 82/16
f 18/11 17/7 12/9
f 31/17 32/18 4/3
f 8/5 33/19 37/20
f 34/21 23/22 35/23
f 22/24 30/25 29/26
f 19/12 25/27 17/7
f 260/28 636/29 30/25
f 21/13 17/7 15/30
f 30/25 22/24 260/28
f 31/17 39/31 32/18
f 23/22 34/21 5/32
f 60/33 38/34 11/10
f 40/35 66/36 15/30
f 771/37 13/38 9/39
f 15/30 17/7 25/27
f 15/30 25/27 40/35
f 43/40 3/2 2/1
f 38/34 8/5 11/10
f 53/41 13/38 51/42
f 46/43 45/44 13/38
f 13/38 771/37 51/42
f 4/3 32/18 55/45
f 4/3 55/45 61/46
f 5/32 34/21 52/47
f 61/46 44/48 4/3
f 13/38 14/49 9/39
f 57/50 16/51 56/52
f 5/32 62/53 63/54
f 85/55 9/39 14/49
f 65/56 5/32 142/57
f 36/58 64/59 69/60
f 72/61 57/50 56/52
f 66/36 68/62 73/63
f 75/64 74/65 42/66
f 59/67 68/62 66/36
f 13/38 45/44 14/49
f 78/68 24/14 76/69
f 76/69 24/14 82/16
f 66/36 40/35 59/67
f 49/70 69/60 64/59
f 92/71 82/16 41/15
f 410/72 81/73 79/74
f 64/59 47/75 49/70
f 59/67 40/35 19/12
f 68/62 59/67 18/11
f 85/55 14/49 45/44
f 25/27 19/12 40/35
f 92/71 41/15 42/66
f 67/76 66/36 73/63
f 89/77 90/78 91/79
f 93/80 45/44 46/43
f 88/81 67/76 73/63
f 97/82 75/64 42/66
f 19/12 18/11 59/67
f 92/71 42/66 74/65
f 101/83 771/37 9/39
f 23/22 63/54 100/84
f 28/85 23/22 100/84
f 100/84 712/86 113/87
f 36/58 764/88 64/59
f 68/62 18/11 107/89
f 46/43 108/90 93/80
f 77/91 80/92 109/93
f 68/62 107/89 130/94
f 16/51 57/50 54/95
f 111/96 27/97 110/98
f 45/44 93/80 85/55
f 100/84 113/87 28/85
f 20/99 26/100 114/101
f 27/97 28/85 110/98
f 23/22 28/85 27/97
f 99/102 98/103 106/104
f 63/54 62/53 627/105
f 73/63 68/62 120/106
f 85/55 101/83 9/39
f 62/53 123/107 117/108
f 42/66 115/109 116/110
f 712/86 118/111 113/87
f 123/107 62/53 70/112
f 124/113 73/63 120/106
f 104/114 119/115 103/116
f 133/117 129/118 102/119
f 127/120 132/121 120/106
f 133/117 102/119 136/122
f 62/53 65/56 70/112
f 135/123 138/124 119/115
f 161/125 143/126 139/127
f 144/128 114/101 228/129
f 68/62 130/94 120/106
f 146/130 125/131 138/124
f 114/101 26/100 29/26
f 22/24 29/26 26/100
f 116/110 140/132 147/133
f 1/134 116/110 147/133
f 120/106 130/94 127/120
f 102/119 42/66 116/110
f 102/119 97/82 42/66
f 117/108 123/107 109/93
f 153/135 176/136 184/137
f 145/138 153/135 184/137
f 114/101 48/139 228/129
f 136/122 116/110 1/134
f 116/110 136/122 102/119
f 80/92 112/140 109/93
f 158/141 153/135 145/138
f 159/142 162/143 160/144
f 152/145 612/146 161/125
f 139/127 148/147 151/148
f 151/148 148/147 154/149
f 168/150 160/144 162/143
f 167/151 168/150 162/143
f 161/125 139/127 151/148
f 168/150 167/151 170/152
f 173/153 145/138 171/154
f 149/155 145/138 173/153
f 3/2 43/40 138/124
f 44/48 138/124 43/40
f 109/93 123/107 175/156
f 194/157 137/158 69/60
f 69/60 172/159 194/157
f 186/160 181/161 180/162
f 180/162 187/163 186/160
f 149/155 134/164 166/165
f 172/159 191/166 194/157
f 185/167 187/163 180/162
f 185/167 190/168 187/163
f 49/70 191/166 172/159
f 188/169 44/48 61/46
f 49/70 47/75 169/170
f 145/138 184/137 171/154
f 44/48 188/169 183/171
f 156/172 176/136 153/135
f 552/173 188/169 58/174
f 58/174 188/169 61/46
f 160/144 192/175 159/142
f 137/158 194/157 155/176
f 190/168 154/149 150/177
f 148/147 150/177 154/149
f 193/178 54/95 57/50
f 156/172 195/179 176/136
f 204/180 194/157 191/166
f 160/144 220/181 192/175
f 58/174 61/46 179/182
f 190/168 185/167 154/149
f 199/183 134/164 198/184
f 194/157 201/185 155/176
f 137/158 155/176 164/186
f 55/45 179/182 61/46
f 124/113 120/106 132/121
f 204/180 201/185 194/157
f 165/187 156/172 153/135
f 77/91 109/93 205/188
f 346/189 50/190 54/95
f 193/178 346/189 54/95
f 132/121 127/120 139/127
f 182/191 50/190 346/189
f 117/108 109/93 112/140
f 223/192 127/120 130/94
f 148/147 139/127 127/120
f 127/120 223/192 148/147
f 202/193 196/194 197/195
f 209/196 213/197 210/198
f 237/199 203/200 217/201
f 214/202 622/203 206/204
f 525/205 237/199 217/201
f 622/203 204/180 206/204
f 107/89 218/206 219/207
f 209/196 168/150 221/208
f 176/136 163/209 184/137
f 109/93 175/156 205/188
f 209/196 216/210 220/181
f 168/150 209/196 220/181
f 165/187 184/137 163/209
f 49/70 172/159 69/60
f 184/137 165/187 222/211
f 123/107 70/112 175/156
f 107/89 219/207 130/94
f 70/112 71/212 175/156
f 208/213 237/199 525/205
f 184/137 222/211 171/154
f 297/214 306/215 219/207
f 160/144 168/150 220/181
f 168/150 170/152 221/208
f 229/216 213/197 170/152
f 213/197 209/196 221/208
f 130/94 219/207 223/192
f 165/187 212/217 215/218
f 193/178 57/50 228/129
f 221/208 170/152 213/197
f 215/218 222/211 165/187
f 210/198 213/197 229/216
f 156/172 165/187 163/209
f 223/192 219/207 306/215
f 230/219 227/220 225/221
f 183/171 188/169 138/124
f 228/129 57/50 144/128
f 156/172 163/209 195/179
f 190/168 150/177 233/222
f 190/168 233/222 187/163
f 223/192 150/177 148/147
f 223/192 306/215 150/177
f 240/223 239/224 241/225
f 72/61 144/128 57/50
f 237/199 238/226 166/165
f 236/227 242/228 234/229
f 159/142 174/230 162/143
f 233/222 186/160 187/163
f 212/217 245/231 243/232
f 236/227 234/229 225/221
f 232/233 225/221 234/229
f 192/175 220/181 200/234
f 138/124 44/48 183/171
f 250/235 271/236 272/237
f 247/238 147/133 251/239
f 246/240 247/238 251/239
f 200/234 220/181 253/241
f 257/242 200/234 253/241
f 636/29 260/28 259/243
f 251/239 259/243 260/28
f 253/241 263/244 257/242
f 265/245 253/241 266/246
f 266/246 253/241 220/181
f 256/247 262/248 107/89
f 261/249 107/89 262/248
f 267/250 174/230 159/142
f 175/156 71/212 235/251
f 243/232 244/252 212/217
f 212/217 131/253 245/231
f 218/206 261/249 268/254
f 254/255 655/256 269/257
f 192/175 267/250 159/142
f 208/213 238/226 237/199
f 655/256 254/255 249/258
f 147/133 259/243 251/239
f 270/259 246/240 251/239
f 238/226 208/213 273/260
f 274/261 246/240 270/259
f 192/175 200/234 277/262
f 212/217 126/263 131/253
f 192/175 277/262 267/250
f 71/212 241/225 235/251
f 279/264 273/260 208/213
f 260/28 270/259 251/239
f 107/89 261/249 218/206
f 278/265 281/266 249/258
f 281/266 278/265 275/267
f 22/24 270/259 260/28
f 212/217 165/187 126/263
f 256/247 107/89 272/237
f 241/225 239/224 235/251
f 272/237 271/236 256/247
f 267/250 282/268 174/230
f 210/198 229/216 207/269
f 255/270 240/223 241/225
f 165/187 284/271 126/263
f 261/249 262/248 268/254
f 26/100 270/259 22/24
f 286/272 207/269 283/273
f 245/231 131/253 141/274
f 255/270 287/275 240/223
f 245/231 141/274 258/276
f 287/275 288/277 240/223
f 271/236 262/248 256/247
f 271/236 290/278 262/248
f 229/216 283/273 207/269
f 170/152 167/151 229/216
f 283/273 291/279 286/272
f 283/273 229/216 167/151
f 250/235 292/280 271/236
f 330/281 334/282 285/283
f 20/99 314/284 270/259
f 274/261 270/259 314/284
f 293/285 286/272 291/279
f 70/112 65/56 142/57
f 283/273 167/151 174/230
f 71/212 70/112 142/57
f 298/286 296/287 217/201
f 283/273 174/230 294/288
f 294/288 291/279 283/273
f 279/264 299/289 273/260
f 285/283 55/45 32/18
f 296/287 525/205 217/201
f 167/151 162/143 174/230
f 300/290 287/275 302/291
f 297/214 290/278 379/292
f 270/259 26/100 20/99
f 55/45 285/283 305/293
f 12/9 548/294 308/295
f 314/284 307/296 1/134
f 548/294 58/174 308/295
f 268/254 297/214 218/206
f 291/279 294/288 309/297
f 174/230 282/268 294/288
f 226/298 311/299 232/233
f 302/291 301/300 300/290
f 218/206 297/214 219/207
f 203/200 310/301 202/193
f 294/288 282/268 309/297
f 290/278 268/254 262/248
f 314/284 247/238 246/240
f 297/214 268/254 290/278
f 314/284 1/134 247/238
f 293/285 316/302 318/303
f 317/304 202/193 197/195
f 317/304 203/200 202/193
f 320/305 319/306 316/302
f 18/11 313/307 315/308
f 316/302 325/309 320/305
f 197/195 312/310 317/304
f 310/301 196/194 202/193
f 303/311 196/194 310/301
f 198/184 310/301 199/183
f 321/312 300/290 301/300
f 274/261 314/284 246/240
f 324/313 321/312 301/300
f 375/314 306/215 297/214
f 325/309 178/315 320/305
f 315/308 107/89 18/11
f 18/11 308/295 313/307
f 375/314 379/292 290/278
f 340/316 375/314 290/278
f 325/309 316/302 293/285
f 241/225 142/57 349/317
f 142/57 241/225 71/212
f 325/309 293/285 291/279
f 325/309 291/279 178/315
f 287/275 255/270 302/291
f 328/318 320/305 178/315
f 237/199 199/183 310/301
f 177/319 328/318 178/315
f 309/297 177/319 178/315
f 330/281 348/320 332/321
f 285/283 333/322 276/323
f 291/279 309/297 178/315
f 285/283 276/323 330/281
f 287/275 300/290 321/312
f 310/301 203/200 237/199
f 335/324 233/222 150/177
f 306/215 335/324 150/177
f 339/325 337/326 292/280
f 337/326 338/327 340/316
f 336/328 329/329 230/219
f 343/330 334/282 330/281
f 330/281 332/321 343/330
f 63/54 23/22 5/32
f 177/319 327/331 328/318
f 339/325 344/332 337/326
f 5/32 65/56 62/53
f 5/32 349/317 142/57
f 343/330 347/333 334/282
f 225/221 226/298 329/329
f 153/135 158/141 165/187
f 330/281 276/323 348/320
f 362/334 177/319 309/297
f 346/189 345/335 182/191
f 344/332 338/327 337/326
f 350/336 158/141 759/337
f 225/221 232/233 311/299
f 284/271 158/141 350/336
f 355/338 354/339 356/340
f 344/332 357/341 338/327
f 358/342 359/343 355/338
f 52/47 349/317 5/32
f 165/187 158/141 284/271
f 193/178 228/129 346/189
f 345/335 346/189 228/129
f 353/344 363/345 354/339
f 364/346 349/317 52/47
f 284/271 365/347 131/253
f 292/280 337/326 340/316
f 309/297 282/268 362/334
f 338/327 342/348 366/349
f 342/348 338/327 357/341
f 340/316 290/278 271/236
f 364/346 353/344 349/317
f 358/342 355/338 356/340
f 363/345 356/340 354/339
f 263/244 131/253 365/347
f 253/241 131/253 263/244
f 20/99 114/101 144/128
f 314/284 20/99 144/128
f 340/316 271/236 292/280
f 354/339 302/291 255/270
f 284/271 350/336 365/347
f 255/270 353/344 354/339
f 338/327 366/349 340/316
f 349/317 353/344 255/270
f 241/225 349/317 255/270
f 314/284 144/128 307/296
f 355/338 301/300 354/339
f 336/328 230/219 225/221
f 374/350 321/312 324/313
f 301/300 302/291 354/339
f 277/262 257/242 376/351
f 297/214 379/292 375/314
f 257/242 277/262 200/234
f 377/352 1/134 307/296
f 380/353 366/349 342/348
f 307/296 378/354 377/352
f 771/37 365/347 350/336
f 382/355 378/354 307/296
f 383/356 372/357 277/262
f 288/277 287/275 321/312
f 226/298 225/221 311/299
f 365/347 376/351 263/244
f 267/250 277/262 372/357
f 376/351 365/347 771/37
f 285/283 334/282 305/293
f 383/356 277/262 373/358
f 329/329 336/328 225/221
f 305/293 387/359 392/360
f 434/361 390/362 386/363
f 397/364 335/324 306/215
f 231/365 398/366 399/367
f 413/368 376/351 406/369
f 387/359 305/293 334/282
f 402/370 403/371 404/372
f 397/364 306/215 375/314
f 406/369 376/351 101/83
f 422/373 413/368 406/369
f 380/353 405/374 366/349
f 381/375 375/314 342/348
f 412/376 407/377 418/378
f 399/367 230/219 231/365
f 395/379 421/380 403/371
f 329/329 231/365 230/219
f 412/376 385/381 411/382
f 385/381 307/296 411/382
f 399/367 401/383 230/219
f 308/295 18/11 12/9
f 307/296 385/381 382/355
f 375/314 405/374 380/353
f 416/384 388/385 415/386
f 414/387 393/388 390/362
f 390/362 417/389 386/363
f 372/357 383/356 422/373
f 225/221 227/220 236/227
f 376/351 257/242 263/244
f 414/387 407/377 393/388
f 388/385 416/384 322/390
f 380/353 342/348 375/314
f 326/391 389/392 323/393
f 389/392 322/390 323/393
f 413/368 383/356 373/358
f 340/316 405/374 375/314
f 375/314 381/375 397/364
f 322/390 389/392 391/394
f 413/368 373/358 376/351
f 277/262 376/351 373/358
f 393/388 407/377 72/61
f 72/61 407/377 411/382
f 227/220 230/219 419/395
f 372/357 422/373 267/250
f 411/382 144/128 72/61
f 401/383 419/395 230/219
f 179/182 308/295 58/174
f 307/296 144/128 411/382
f 426/396 414/387 390/362
f 407/377 414/387 418/378
f 233/222 420/397 425/398
f 408/399 331/400 424/401
f 108/90 46/43 299/289
f 313/307 308/295 179/182
f 426/396 390/362 434/361
f 55/45 305/293 313/307
f 233/222 335/324 420/397
f 412/376 418/378 426/396
f 424/401 331/400 351/402
f 418/378 414/387 426/396
f 407/377 412/376 411/382
f 426/396 427/403 412/376
f 227/220 419/395 236/227
f 401/383 236/227 419/395
f 403/371 421/380 404/372
f 431/404 322/390 416/384
f 55/45 313/307 179/182
f 93/80 108/90 428/405
f 410/72 401/383 399/367
f 351/402 352/406 424/401
f 437/407 438/408 433/409
f 440/410 441/411 458/412
f 101/83 422/373 406/369
f 282/268 267/250 409/413
f 771/37 101/83 376/351
f 434/361 385/381 384/414
f 180/162 448/415 437/407
f 443/416 382/355 385/381
f 436/417 449/418 435/419
f 385/381 434/361 443/416
f 435/419 442/420 439/421
f 440/410 437/407 448/415
f 392/360 313/307 305/293
f 439/421 617/422 435/419
f 392/360 315/308 313/307
f 654/423 249/258 452/424
f 384/414 385/381 400/425
f 385/381 412/376 400/425
f 440/410 438/408 437/407
f 427/403 426/396 454/426
f 442/420 435/419 449/418
f 439/421 442/420 446/427
f 412/376 427/403 400/425
f 315/308 392/360 462/428
f 444/429 455/430 453/431
f 85/55 447/432 101/83
f 422/373 101/83 447/432
f 93/80 429/433 85/55
f 452/424 446/427 442/420
f 429/433 447/432 85/55
f 387/359 334/282 347/333
f 282/268 409/413 369/434
f 429/433 428/405 108/90
f 267/250 125/131 409/413
f 457/435 56/52 466/436
f 444/429 453/431 304/437
f 93/80 428/405 429/433
f 463/438 462/428 392/360
f 463/438 392/360 248/439
f 392/360 387/359 248/439
f 460/440 56/52 459/441
f 457/435 459/441 56/52
f 457/435 464/442 459/441
f 440/410 458/412 438/408
f 355/338 359/343 467/443
f 467/443 468/444 355/338
f 446/427 452/424 281/266
f 457/435 466/436 464/442
f 409/413 125/131 450/445
f 452/424 249/258 281/266
f 433/409 438/408 458/412
f 423/446 323/393 455/430
f 456/447 439/421 446/427
f 279/264 295/448 299/289
f 371/449 362/334 282/268
f 474/450 486/451 472/452
f 617/422 439/421 554/453
f 554/453 439/421 456/447
f 469/454 476/455 470/456
f 324/313 479/457 374/350
f 180/162 181/161 448/415
f 186/160 448/415 181/161
f 186/160 482/458 448/415
f 429/433 422/373 447/432
f 422/373 429/433 267/250
f 578/459 478/460 477/461
f 469/454 478/460 578/459
f 125/131 267/250 429/433
f 484/462 250/235 272/237
f 272/237 252/463 484/462
f 252/463 272/237 107/89
f 483/464 478/460 475/465
f 486/451 468/444 467/443
f 475/465 478/460 469/454
f 634/466 483/464 475/465
f 374/350 479/457 488/467
f 490/468 764/88 485/469
f 16/51 54/95 466/436
f 234/229 242/228 485/469
f 458/412 489/470 433/409
f 490/468 485/469 242/228
f 490/468 242/228 494/471
f 324/313 468/444 479/457
f 369/434 409/413 450/445
f 371/449 369/434 450/445
f 466/436 54/95 50/190
f 479/457 491/472 492/473
f 489/470 458/412 441/411
f 282/268 369/434 371/449
f 108/90 125/131 429/433
f 50/190 464/442 466/436
f 107/89 315/308 252/463
f 491/472 479/457 468/444
f 440/410 448/415 482/458
f 486/451 491/472 468/444
f 186/160 493/474 482/458
f 355/338 324/313 301/300
f 468/444 324/313 355/338
f 482/458 441/411 440/410
f 488/467 479/457 487/475
f 451/476 445/477 444/429
f 487/475 479/457 492/473
f 496/478 464/442 50/190
f 50/190 182/191 496/478
f 543/479 497/480 495/481
f 383/356 413/368 422/373
f 451/476 444/429 304/437
f 466/436 56/52 16/51
f 499/482 500/483 501/484
f 254/255 494/471 249/258
f 315/308 471/485 481/486
f 502/487 499/482 501/484
f 462/428 471/485 315/308
f 323/393 322/390 431/404
f 269/257 494/471 254/255
f 431/404 508/488 323/393
f 507/489 502/487 501/484
f 498/490 72/61 56/52
f 56/52 460/440 498/490
f 507/489 510/491 509/492
f 269/257 490/468 494/471
f 512/493 315/308 481/486
f 275/267 278/265 494/471
f 423/446 326/391 323/393
f 502/487 507/489 509/492
f 453/431 455/430 323/393
f 494/471 242/228 275/267
f 236/227 275/267 242/228
f 459/441 517/494 460/440
f 519/495 508/488 431/404
f 512/493 252/463 315/308
f 431/404 524/496 519/495
f 323/393 508/488 519/495
f 528/497 446/427 281/266
f 500/483 499/482 525/205
f 281/266 275/267 528/497
f 288/277 321/312 488/467
f 515/498 526/499 527/500
f 345/335 496/478 182/191
f 530/501 531/502 546/503
f 496/478 529/504 464/442
f 275/267 236/227 528/497
f 531/502 530/501 488/467
f 459/441 464/442 536/505
f 464/442 532/506 536/505
f 288/277 488/467 530/501
f 529/504 532/506 464/442
f 278/265 249/258 494/471
f 499/482 502/487 534/507
f 252/463 533/508 484/462
f 536/505 518/509 517/494
f 536/505 517/494 459/441
f 535/510 489/470 441/411
f 542/511 416/384 415/386
f 538/512 543/479 539/513
f 526/499 515/498 538/512
f 531/502 487/475 492/473
f 321/312 374/350 488/467
f 488/467 487/475 531/502
f 490/468 64/59 764/88
f 517/494 393/388 460/440
f 498/490 460/440 393/388
f 541/514 393/388 517/494
f 537/515 484/462 533/508
f 415/386 547/516 542/511
f 393/388 72/61 498/490
f 344/332 360/517 537/515
f 360/517 484/462 537/515
f 21/13 548/294 10/8
f 524/496 416/384 542/511
f 490/468 269/257 64/59
f 491/472 511/518 402/370
f 486/451 511/518 491/472
f 416/384 524/496 431/404
f 492/473 491/472 546/503
f 402/370 546/503 491/472
f 351/402 432/519 352/406
f 546/503 402/370 404/372
f 546/503 404/372 530/501
f 289/520 542/511 547/516
f 480/521 528/497 236/227
f 546/503 531/502 492/473
f 518/509 541/514 517/494
f 467/443 472/452 486/451
f 298/286 542/511 289/520
f 489/470 535/510 540/522
f 542/511 298/286 524/496
f 551/523 446/427 528/497
f 518/509 643/524 601/525
f 548/294 21/13 552/173
f 456/447 473/526 554/453
f 601/525 541/514 518/509
f 555/527 453/431 553/528
f 453/431 323/393 553/528
f 327/331 320/305 328/318
f 327/331 549/529 320/305
f 580/530 549/529 327/331
f 559/531 390/362 393/388
f 236/227 401/383 480/521
f 446/427 473/526 456/447
f 519/495 558/532 323/393
f 473/526 446/427 480/521
f 403/371 402/370 511/518
f 482/458 535/510 441/411
f 323/393 558/532 553/528
f 541/514 567/533 393/388
f 535/510 482/458 493/474
f 561/534 502/487 509/492
f 514/535 561/534 509/492
f 511/518 550/536 403/371
f 551/523 528/497 480/521
f 550/536 395/379 403/371
f 562/537 563/538 477/461
f 367/539 327/331 177/319
f 203/200 558/532 524/496
f 558/532 519/495 524/496
f 561/534 534/507 502/487
f 506/540 503/541 505/542
f 304/437 453/431 555/527
f 276/323 395/379 550/536
f 196/194 304/437 555/527
f 553/528 312/310 555/527
f 505/542 540/522 566/543
f 548/294 552/173 58/174
f 563/538 567/533 601/525
f 541/514 601/525 567/533
f 312/310 197/195 555/527
f 128/544 550/536 511/518
f 67/76 88/81 96/545
f 124/113 88/81 73/63
f 480/521 446/427 551/523
f 553/528 203/200 312/310
f 571/546 21/13 67/76
f 474/450 511/518 486/451
f 553/528 558/532 203/200
f 511/518 474/450 128/544
f 410/72 565/547 401/383
f 21/13 571/546 564/548
f 21/13 564/548 552/173
f 575/549 572/550 186/160
f 574/551 495/481 497/480
f 574/551 497/480 570/552
f 569/553 567/533 563/538
f 289/520 296/287 298/286
f 21/13 66/36 67/76
f 499/482 208/213 525/205
f 499/482 534/507 208/213
f 480/521 565/547 576/554
f 565/547 480/521 401/383
f 186/160 233/222 575/549
f 513/555 495/481 577/556
f 298/286 203/200 524/496
f 554/453 473/526 557/557
f 571/546 67/76 96/545
f 572/550 575/549 573/558
f 203/200 298/286 217/201
f 575/549 587/559 581/560
f 473/526 480/521 576/554
f 520/561 522/562 521/563
f 573/558 575/549 581/560
f 520/561 521/563 510/491
f 564/548 571/546 582/564
f 579/565 469/454 578/459
f 410/72 79/74 565/547
f 547/516 432/519 351/402
f 545/566 565/547 79/74
f 547/516 415/386 432/519
f 470/456 583/567 584/568
f 509/492 510/491 522/562
f 522/562 510/491 521/563
f 549/529 580/530 115/109
f 565/547 545/566 576/554
f 203/200 317/304 312/310
f 196/194 303/311 304/437
f 197/195 196/194 555/527
f 589/569 580/530 327/331
f 566/543 540/522 535/510
f 571/546 96/545 582/564
f 507/489 590/570 510/491
f 476/455 579/565 583/567
f 128/544 591/571 550/536
f 589/569 327/331 367/539
f 560/572 514/535 509/492
f 510/491 523/573 520/561
f 177/319 362/334 367/539
f 509/492 522/562 560/572
f 470/456 476/455 583/567
f 590/570 595/574 510/491
f 595/574 594/575 523/573
f 523/573 510/491 595/574
f 280/576 550/536 591/571
f 523/573 594/575 83/577
f 473/526 576/554 545/566
f 582/564 96/545 88/81
f 505/542 566/543 568/578
f 545/566 586/579 473/526
f 580/530 596/580 115/109
f 593/581 473/526 586/579
f 523/573 83/577 588/582
f 598/583 63/54 627/105
f 535/510 493/474 597/584
f 580/530 589/569 596/580
f 522/562 520/561 588/582
f 588/582 520/561 523/573
f 469/454 579/565 476/455
f 122/585 115/109 596/580
f 276/323 550/536 280/576
f 122/585 596/580 570/552
f 505/542 568/578 506/540
f 574/551 570/552 596/580
f 597/584 568/578 566/543
f 535/510 597/584 566/543
f 189/586 552/173 564/548
f 560/572 522/562 588/582
f 596/580 589/569 574/551
f 599/587 600/588 686/589
f 525/205 296/287 500/483
f 77/91 588/582 83/577
f 560/572 588/582 514/535
f 465/590 295/448 534/507
f 577/556 495/481 574/551
f 649/591 564/548 582/564
f 208/213 534/507 295/448
f 604/592 568/578 597/584
f 500/483 296/287 607/593
f 279/264 208/213 295/448
f 608/594 572/550 585/595
f 649/591 582/564 88/81
f 534/507 561/534 465/590
f 572/550 573/558 585/595
f 572/550 611/596 186/160
f 607/593 613/597 605/598
f 613/597 607/593 610/599
f 186/160 611/596 493/474
f 606/600 574/551 589/569
f 500/483 607/593 605/598
f 604/592 597/584 493/474
f 724/601 615/602 614/603
f 11/10 604/592 493/474
f 235/251 667/604 175/156
f 493/474 60/33 11/10
f 613/597 507/489 501/484
f 11/10 7/4 604/592
f 500/483 605/598 613/597
f 613/597 610/599 651/605
f 613/597 501/484 500/483
f 561/534 514/535 465/590
f 590/570 613/597 651/605
f 108/90 299/289 465/590
f 371/449 367/539 362/334
f 143/126 161/125 612/146
f 289/520 547/516 620/606
f 125/131 108/90 465/590
f 611/596 572/550 608/594
f 577/556 574/551 606/600
f 606/600 671/607 577/556
f 601/525 477/461 563/538
f 620/606 296/287 289/520
f 573/558 581/560 585/595
f 599/587 155/176 618/608
f 152/145 433/409 612/146
f 60/33 493/474 611/596
f 579/565 578/459 477/461
f 650/609 612/146 693/610
f 610/599 607/593 651/605
f 579/565 477/461 601/525
f 616/611 477/461 478/460
f 627/105 626/612 623/613
f 625/614 497/480 543/479
f 211/615 204/180 622/203
f 211/615 201/185 204/180
f 77/91 205/188 629/616
f 588/582 77/91 629/616
f 603/617 478/460 483/464
f 575/549 233/222 425/398
f 621/618 657/619 622/203
f 224/620 622/203 657/619
f 132/121 88/81 124/113
f 465/590 629/616 125/131
f 483/464 686/589 603/617
f 631/621 618/608 201/185
f 155/176 201/185 618/608
f 600/588 603/617 686/589
f 516/622 625/614 543/479
f 587/559 575/549 425/398
f 600/588 478/460 628/623
f 632/624 201/185 211/615
f 132/121 609/625 88/81
f 629/616 678/626 125/131
f 631/621 201/185 632/624
f 539/513 543/479 495/481
f 88/81 609/625 649/591
f 497/480 516/622 515/498
f 240/223 288/277 239/224
f 603/617 600/588 628/623
f 478/460 603/617 628/623
f 629/616 465/590 514/535
f 629/616 514/535 588/582
f 710/627 515/498 636/29
f 29/26 636/29 515/498
f 614/603 638/628 637/629
f 295/448 465/590 299/289
f 516/622 497/480 625/614
f 640/630 623/613 626/612
f 644/631 642/632 590/570
f 475/465 469/454 647/633
f 469/454 470/456 647/633
f 624/634 642/632 644/631
f 132/121 139/127 609/625
f 602/635 649/591 609/625
f 543/479 538/512 516/622
f 239/224 288/277 635/636
f 634/466 475/465 647/633
f 497/480 515/498 710/627
f 635/636 288/277 641/637
f 614/603 633/638 638/628
f 644/631 651/605 607/593
f 637/629 621/618 614/603
f 644/631 607/593 624/634
f 122/585 570/552 140/132
f 633/638 614/603 615/602
f 507/489 613/597 590/570
f 590/570 651/605 644/631
f 724/601 617/422 615/602
f 635/636 652/639 235/251
f 617/422 637/629 638/628
f 239/224 635/636 235/251
f 640/630 590/570 642/632
f 623/613 640/630 642/632
f 530/501 341/640 288/277
f 623/613 642/632 624/634
f 590/570 640/630 595/574
f 141/274 131/253 265/245
f 615/602 617/422 638/628
f 615/602 638/628 633/638
f 112/140 80/92 595/574
f 636/29 29/26 30/25
f 621/618 637/629 657/619
f 131/253 253/241 265/245
f 140/132 497/480 710/627
f 643/524 579/565 601/525
f 570/552 497/480 140/132
f 77/91 83/577 80/92
f 496/478 345/335 368/641
f 288/277 341/640 641/637
f 529/504 496/478 368/641
f 660/642 513/555 577/556
f 495/481 513/555 539/513
f 635/636 691/643 652/639
f 637/629 658/644 657/619
f 657/619 658/644 676/645
f 660/642 539/513 513/555
f 645/646 661/647 654/423
f 656/648 650/609 693/610
f 656/648 143/126 653/649
f 661/647 663/650 47/75
f 618/608 664/651 674/652
f 83/577 594/575 80/92
f 595/574 80/92 594/575
f 659/653 536/505 532/506
f 538/512 660/642 526/499
f 641/637 121/654 635/636
f 612/146 650/609 653/649
f 660/642 538/512 539/513
f 143/126 612/146 653/649
f 146/130 138/124 188/169
f 631/621 664/651 618/608
f 119/115 138/124 125/131
f 189/586 146/130 188/169
f 626/612 112/140 595/574
f 189/586 188/169 552/173
f 112/140 626/612 117/108
f 526/499 660/642 577/556
f 655/256 249/258 654/423
f 626/612 595/574 640/630
f 146/130 189/586 564/548
f 209/196 210/198 216/210
f 216/210 210/198 207/269
f 87/655 641/637 341/640
f 87/655 121/654 641/637
f 48/139 29/26 527/500
f 630/656 607/593 296/287
f 602/635 125/131 146/130
f 624/634 607/593 630/656
f 564/548 602/635 146/130
f 678/626 629/616 205/188
f 515/498 527/500 29/26
f 224/620 211/615 622/203
f 564/548 649/591 602/635
f 667/604 678/626 205/188
f 516/622 538/512 515/498
f 632/624 665/657 631/621
f 667/604 205/188 175/156
f 623/613 624/634 627/105
f 125/131 602/635 673/658
f 216/210 668/659 669/660
f 627/105 624/634 670/661
f 220/181 216/210 669/660
f 527/500 345/335 48/139
f 654/423 661/647 269/257
f 266/246 220/181 669/660
f 673/658 602/635 609/625
f 114/101 29/26 48/139
f 609/625 656/648 675/662
f 631/621 665/657 664/651
f 47/75 64/59 661/647
f 671/607 526/499 577/556
f 117/108 626/612 627/105
f 117/108 627/105 62/53
f 661/647 64/59 269/257
f 125/131 36/58 532/506
f 656/648 609/625 139/127
f 656/648 139/127 143/126
f 345/335 228/129 48/139
f 653/649 650/609 656/648
f 654/423 269/257 655/256
f 320/305 549/529 319/306
f 318/303 316/302 319/306
f 672/663 125/131 678/626
f 662/664 658/644 637/629
f 527/500 526/499 671/607
f 672/663 678/626 667/604
f 675/662 125/131 673/658
f 680/665 216/210 207/269
f 680/665 207/269 286/272
f 470/456 584/568 647/633
f 600/588 599/587 619/666
f 331/400 677/667 620/606
f 677/667 296/287 620/606
f 620/606 361/668 331/400
f 599/587 618/608 674/652
f 351/402 331/400 361/668
f 674/652 619/666 599/587
f 682/669 680/665 286/272
f 609/625 675/662 673/658
f 680/665 684/670 216/210
f 685/671 589/569 367/539
f 685/671 606/600 589/569
f 554/453 556/672 617/422
f 232/233 687/673 226/298
f 701/674 691/643 635/636
f 662/664 637/629 689/675
f 293/285 692/676 682/669
f 286/272 293/285 682/669
f 687/673 690/677 688/678
f 630/656 296/287 677/667
f 689/675 637/629 617/422
f 667/604 235/251 652/639
f 652/639 672/663 667/604
f 592/679 367/539 371/449
f 635/636 94/680 701/674
f 371/449 450/445 592/679
f 557/557 105/681 556/672
f 554/453 557/557 556/672
f 489/470 693/610 433/409
f 659/653 532/506 36/58
f 686/589 483/464 634/466
f 318/303 319/306 699/682
f 695/683 556/672 105/681
f 592/679 685/671 367/539
f 652/639 701/674 672/663
f 612/146 433/409 693/610
f 685/671 671/607 606/600
f 584/568 683/684 647/633
f 683/684 584/568 583/567
f 677/667 331/400 697/685
f 408/399 697/685 331/400
f 695/683 698/686 556/672
f 450/445 125/131 592/679
f 659/653 36/58 696/687
f 137/158 647/633 683/684
f 647/633 164/186 634/466
f 164/186 647/633 137/158
f 697/685 700/688 677/667
f 685/671 592/679 125/131
f 536/505 659/653 696/687
f 686/589 634/466 164/186
f 671/607 685/671 125/131
f 692/676 293/285 699/682
f 698/686 689/675 617/422
f 694/689 699/682 319/306
f 698/686 617/422 556/672
f 318/303 699/682 293/285
f 700/688 95/690 91/79
f 89/77 91/79 95/690
f 599/587 686/589 155/176
f 164/186 155/176 686/589
f 677/667 700/688 91/79
f 663/650 645/646 646/691
f 544/692 105/681 557/557
f 654/423 452/424 645/646
f 557/557 593/581 544/692
f 567/533 559/531 393/388
f 646/691 645/646 436/417
f 645/646 449/418 436/417
f 567/533 569/553 559/531
f 593/581 557/557 473/526
f 529/504 368/641 125/131
f 91/79 98/103 704/693
f 99/102 704/693 98/103
f 264/694 707/695 702/696
f 707/695 394/697 702/696
f 702/696 703/698 264/694
f 116/110 122/585 140/132
f 568/578 7/4 506/540
f 706/6 506/540 7/4
f 452/424 442/420 645/646
f 643/524 518/509 696/687
f 708/699 100/84 63/54
f 121/654 94/680 635/636
f 645/646 442/420 449/418
f 645/646 663/650 661/647
f 713/700 688/678 705/701
f 713/700 717/702 688/678
f 714/703 706/6 716/704
f 506/540 706/6 714/703
f 636/29 259/243 710/627
f 715/705 643/524 696/687
f 719/706 703/698 742/707
f 506/540 410/72 399/367
f 147/133 140/132 710/627
f 264/694 703/698 258/276
f 723/708 430/709 721/710
f 506/540 714/703 410/72
f 714/703 430/709 410/72
f 696/687 518/509 536/505
f 718/711 723/708 716/704
f 718/711 716/704 706/6
f 435/419 617/422 436/417
f 147/133 710/627 259/243
f 718/711 430/709 723/708
f 646/691 436/417 617/422
f 430/709 718/711 81/73
f 643/524 715/705 579/565
f 721/710 430/709 714/703
f 646/691 617/422 724/601
f 724/601 663/650 646/691
f 721/710 714/703 716/704
f 715/705 583/567 579/565
f 716/704 723/708 721/710
f 265/245 669/660 141/274
f 49/70 169/170 191/166
f 232/233 690/677 687/673
f 598/583 708/699 63/54
f 7/4 568/578 604/592
f 410/72 430/709 81/73
f 8/5 37/20 706/6
f 81/73 718/711 706/6
f 706/6 84/712 81/73
f 598/583 627/105 670/661
f 37/20 84/712 706/6
f 265/245 266/246 669/660
f 119/115 125/131 103/116
f 368/641 345/335 527/500
f 368/641 527/500 671/607
f 684/670 726/713 264/694
f 715/705 696/687 36/58
f 216/210 684/670 668/659
f 672/663 701/674 125/131
f 36/58 583/567 715/705
f 141/274 264/694 258/276
f 91/79 90/78 98/103
f 671/607 125/131 368/641
f 103/116 701/674 94/680
f 614/603 214/202 724/601
f 668/659 684/670 264/694
f 668/659 264/694 141/274
f 390/362 559/531 417/389
f 386/363 443/416 434/361
f 621/618 214/202 614/603
f 234/229 705/701 690/677
f 386/363 417/389 728/714
f 690/677 232/233 234/229
f 729/715 386/363 728/714
f 532/506 529/504 125/131
f 598/583 712/86 708/699
f 691/643 701/674 652/639
f 707/695 726/713 709/716
f 726/713 707/695 264/694
f 47/75 724/601 214/202
f 214/202 621/618 622/203
f 562/537 569/553 563/538
f 147/133 247/238 1/134
f 701/674 103/116 125/131
f 705/701 234/229 485/469
f 669/660 668/659 141/274
f 206/204 169/170 214/202
f 329/329 226/298 687/673
f 687/673 231/365 329/329
f 688/678 717/702 687/673
f 688/678 690/677 705/701
f 732/717 731/718 136/122
f 731/718 157/719 136/122
f 477/461 616/611 562/537
f 734/720 670/661 704/693
f 630/656 677/667 624/634
f 677/667 670/661 624/634
f 47/75 663/650 724/601
f 91/79 704/693 677/667
f 670/661 677/667 704/693
f 733/721 737/722 730/723
f 169/170 47/75 214/202
f 699/682 41/15 736/724
f 136/122 1/134 732/717
f 478/460 600/588 616/611
f 204/180 191/166 169/170
f 106/104 98/103 90/78
f 733/721 762/725 737/722
f 6/726 732/717 1/134
f 231/365 687/673 717/702
f 41/15 699/682 694/689
f 231/365 504/727 398/366
f 231/365 717/702 504/727
f 725/728 740/729 741/730
f 702/696 741/730 740/729
f 717/702 505/542 504/727
f 398/366 504/727 503/541
f 598/583 670/661 735/731
f 734/720 735/731 670/661
f 743/732 742/707 740/729
f 99/102 106/104 118/111
f 503/541 399/367 398/366
f 99/102 734/720 704/693
f 506/540 399/367 503/541
f 204/180 169/170 206/204
f 702/696 740/729 742/707
f 734/720 99/102 118/111
f 703/698 702/696 742/707
f 598/583 735/731 712/86
f 503/541 504/727 505/542
f 735/731 734/720 712/86
f 569/553 562/537 746/733
f 100/84 708/699 712/86
f 725/728 709/716 740/729
f 682/669 726/713 684/670
f 684/670 680/665 682/669
f 705/701 747/734 711/735
f 699/682 736/724 692/676
f 118/111 712/86 734/720
f 137/158 683/684 583/567
f 583/567 36/58 137/158
f 711/735 722/736 713/700
f 69/60 137/158 36/58
f 547/516 361/668 620/606
f 394/697 707/695 709/716
f 722/736 711/735 753/737
f 750/738 559/531 569/553
f 547/516 351/402 361/668
f 748/739 737/722 745/740
f 737/722 748/739 730/723
f 744/741 722/736 753/737
f 692/676 752/742 682/669
f 709/716 682/669 752/742
f 717/702 713/700 505/542
f 745/740 737/722 762/725
f 562/537 616/611 746/733
f 711/735 713/700 705/701
f 709/716 726/713 682/669
f 750/738 569/553 746/733
f 719/706 742/707 720/743
f 505/542 713/700 744/741
f 559/531 750/738 417/389
f 758/744 720/743 742/707
f 3/2 748/739 745/740
f 750/738 757/745 749/746
f 759/337 158/141 145/138
f 702/696 394/697 741/730
f 758/744 742/707 709/716
f 756/747 31/17 755/748
f 743/732 709/716 742/707
f 31/17 3/2 755/748
f 743/732 740/729 709/716
f 149/155 759/337 145/138
f 738/749 754/750 762/725
f 755/748 762/725 754/750
f 758/744 709/716 752/742
f 762/725 755/748 745/740
f 759/337 166/165 771/37
f 709/716 725/728 394/697
f 745/740 755/748 3/2
f 166/165 759/337 149/155
f 639/751 648/752 736/724
f 750/738 746/733 757/745
f 134/164 199/183 166/165
f 51/42 760/753 53/41
f 51/42 166/165 760/753
f 648/752 752/742 736/724
f 751/754 748/739 3/2
f 41/15 24/14 736/724
f 736/724 24/14 639/751
f 753/737 489/470 540/522
f 46/43 13/38 53/41
f 639/751 24/14 86/755
f 616/611 600/588 739/756
f 540/522 505/542 744/741
f 692/676 736/724 752/742
f 679/757 600/588 619/666
f 31/17 4/3 3/2
f 753/737 540/522 744/741
f 679/757 681/758 600/588
f 765/759 616/611 739/756
f 722/736 744/741 713/700
f 761/760 746/733 616/611
f 616/611 765/759 761/760
f 764/88 705/701 485/469
f 730/723 763/761 733/721
f 763/761 666/762 733/721
f 739/756 600/588 681/758
f 733/721 666/762 762/725
f 656/648 693/610 675/662
f 395/379 396/763 767/764
f 395/379 767/764 421/380
f 396/763 738/749 767/764
f 738/749 396/763 768/765
f 675/662 693/610 769/766
f 767/764 738/749 762/725
f 762/725 421/380 767/764
f 769/766 753/737 770/767
f 753/737 693/610 489/470
f 753/737 769/766 693/610
f 748/739 135/123 104/114
f 751/754 135/123 748/739
f 549/529 41/15 319/306
f 694/689 319/306 41/15
f 760/753 273/260 53/41
f 675/662 769/766 125/131
f 770/767 125/131 769/766
f 549/529 115/109 41/15
f 122/585 116/110 115/109
f 41/15 115/109 42/66
f 238/226 760/753 166/165
f 86/755 24/14 78/68
f 666/762 530/501 762/725
f 530/501 404/372 762/725
f 341/640 530/501 666/762
f 238/226 273/260 760/753
f 166/165 199/183 237/199
f 46/43 53/41 299/289
f 273/260 299/289 53/41
f 771/37 166/165 51/42
f 341/640 666/762 87/655
f 87/655 666/762 763/761
f 87/655 763/761 121/654
f 747/734 764/88 125/131
f 404/372 421/380 762/725
f 36/58 125/131 764/88
f 104/114 103/116 94/680
f 104/114 730/723 748/739
f 759/337 771/37 350/336
f 104/114 94/680 121/654
f 730/723 104/114 121/654
f 730/723 121/654 763/761
f 747/734 705/701 764/88
f 754/750 738/749 768/765
f 711/735 770/767 753/737
f 756/747 773/768 39/31
f 125/131 770/767 747/734
f 756/747 39/31 31/17
f 131/253 126/263 284/271
f 39/31 285/283 32/18
f 770/767 711/735 747/734
f 433/409 152/145 437/407
f 756/747 755/748 773/768
f 152/145 151/148 437/407
f 772/769 755/748 754/750
f 754/750 768/765 772/769
f 151/148 185/167 437/407
f 774/770 773/768 755/748
f 768/765 333/322 773/768
f 180/162 437/407 185/167
f 154/149 185/167 151/148
f 161/125 151/148 152/145
f 21/13 15/30 66/36
f 276/323 333/322 395/379
f 768/765 396/763 395/379
f 768/765 395/379 333/322
f 39/31 773/768 333/322
f 333/322 285/283 39/31
f 12/9 10/8 548/294
f 768/765 773/768 772/769
f 774/770 772/769 773/768
f 774/770 755/748 772/769
f 119/115 104/114 135/123
f 3/2 138/124 135/123
f 135/123 751/754 3/2
f 2/1 44/48 43/40
f 44/48 2/1 4/3
l 727 461
l 78 766
l 347 370
