# Blender v2.79 (sub 0) OBJ File: 'crater.blend'
# www.blender.org
mtllib craterCollider.mtl
o Cylinder
v 0.000000 -0.001542 -2.105572
v 0.000000 0.215604 -2.105572
v 0.410777 -0.001542 -2.065114
v 0.410777 0.215604 -2.065114
v 0.805767 -0.001542 -1.945294
v 0.805767 0.215604 -1.945294
v 1.169793 -0.001542 -1.750719
v 1.169793 0.215604 -1.750719
v 1.488864 -0.001542 -1.488864
v 1.488864 0.215604 -1.488864
v 1.750719 -0.001542 -1.169793
v 1.750719 0.215604 -1.169793
v 1.945294 -0.001542 -0.805767
v 1.945294 0.215604 -0.805767
v 2.065114 -0.001542 -0.410777
v 2.065114 0.215604 -0.410777
v 2.105572 -0.001542 -0.000000
v 2.105572 0.215604 -0.000000
v 2.065114 -0.001542 0.410776
v 2.065114 0.215604 0.410776
v 1.945294 -0.001542 0.805767
v 1.945294 0.215604 0.805767
v 1.750719 -0.001542 1.169793
v 1.750719 0.215604 1.169793
v 1.488864 -0.001542 1.488864
v 1.488864 0.215604 1.488864
v 1.169793 -0.001542 1.750719
v 1.169793 0.215604 1.750719
v 0.805767 -0.001542 1.945295
v 0.805767 0.215604 1.945295
v 0.410776 -0.001542 2.065114
v 0.410776 0.215604 2.065114
v -0.000001 -0.001542 2.105572
v -0.000001 0.215604 2.105572
v -0.410777 -0.001542 2.065113
v -0.410777 0.215604 2.065113
v -0.805768 -0.001542 1.945294
v -0.805768 0.215604 1.945294
v -1.169794 -0.001542 1.750718
v -1.169794 0.215604 1.750718
v -1.488865 -0.001542 1.488863
v -1.488865 0.215604 1.488863
v -1.750720 -0.001542 1.169792
v -1.750720 0.215604 1.169792
v -1.945295 -0.001542 0.805766
v -1.945295 0.215604 0.805766
v -2.065114 -0.001542 0.410775
v -2.065114 0.215604 0.410775
v -2.105572 -0.001542 -0.000002
v -2.105572 0.215604 -0.000002
v -2.065113 -0.001542 -0.410779
v -2.065113 0.215604 -0.410779
v -1.945293 -0.001542 -0.805770
v -1.945293 0.215604 -0.805770
v -1.750717 -0.001542 -1.169795
v -1.750717 0.215604 -1.169795
v -1.488862 -0.001542 -1.488866
v -1.488862 0.215604 -1.488866
v -1.169791 -0.001542 -1.750720
v -1.169791 0.215604 -1.750720
v -0.805764 -0.001542 -1.945296
v -0.805764 0.215604 -1.945296
v -0.410773 -0.001542 -2.065114
v -0.410773 0.215604 -2.065114
usemtl None
s off
f 2 3 1
f 4 5 3
f 6 7 5
f 8 9 7
f 10 11 9
f 12 13 11
f 14 15 13
f 16 17 15
f 18 19 17
f 20 21 19
f 22 23 21
f 24 25 23
f 26 27 25
f 28 29 27
f 30 31 29
f 32 33 31
f 34 35 33
f 36 37 35
f 38 39 37
f 40 41 39
f 42 43 41
f 44 45 43
f 46 47 45
f 48 49 47
f 50 51 49
f 52 53 51
f 54 55 53
f 56 57 55
f 58 59 57
f 60 61 59
f 38 22 6
f 62 63 61
f 64 1 63
f 39 47 63
f 2 4 3
f 4 6 5
f 6 8 7
f 8 10 9
f 10 12 11
f 12 14 13
f 14 16 15
f 16 18 17
f 18 20 19
f 20 22 21
f 22 24 23
f 24 26 25
f 26 28 27
f 28 30 29
f 30 32 31
f 32 34 33
f 34 36 35
f 36 38 37
f 38 40 39
f 40 42 41
f 42 44 43
f 44 46 45
f 46 48 47
f 48 50 49
f 50 52 51
f 52 54 53
f 54 56 55
f 56 58 57
f 58 60 59
f 60 62 61
f 6 4 2
f 2 64 6
f 62 60 58
f 58 56 54
f 54 52 50
f 50 48 54
f 46 44 38
f 42 40 38
f 38 36 34
f 34 32 38
f 30 28 26
f 26 24 22
f 22 20 14
f 18 16 14
f 14 12 10
f 10 8 6
f 6 64 62
f 62 58 6
f 54 48 46
f 44 42 38
f 38 32 30
f 30 26 22
f 20 18 14
f 14 10 6
f 6 58 54
f 54 46 6
f 38 30 22
f 22 14 6
f 6 46 38
f 62 64 63
f 64 2 1
f 63 1 3
f 3 5 7
f 7 9 15
f 11 13 15
f 15 17 19
f 19 21 15
f 23 25 31
f 27 29 31
f 31 33 35
f 35 37 39
f 39 41 43
f 43 45 47
f 47 49 51
f 51 53 47
f 55 57 63
f 59 61 63
f 63 3 7
f 9 11 15
f 15 21 23
f 25 27 31
f 31 35 39
f 39 43 47
f 47 53 55
f 57 59 63
f 63 7 15
f 15 23 31
f 31 39 63
f 47 55 63
f 63 15 31
