# Blender v2.79 (sub 0) OBJ File: 'Rock Formation.blend'
# www.blender.org
mtllib Rock FormationLargeCollider2.mtl
o Cylinder.003
v -2.526392 0.003510 -1.556889
v -2.526392 4.353952 -1.556889
v -2.244998 0.003510 -1.500916
v -2.244998 4.353952 -1.500916
v -2.006443 0.003510 -1.341519
v -2.006443 4.353952 -1.341519
v -1.847046 0.003510 -1.102964
v -1.847046 4.353952 -1.102964
v -1.791073 0.003510 -0.821570
v -1.791073 4.353952 -0.821570
v -1.847046 0.003510 -0.540175
v -1.847046 4.353952 -0.540175
v -2.006443 0.003510 -0.301621
v -2.006443 4.353952 -0.301621
v -2.244998 0.003510 -0.142224
v -2.244998 4.353952 -0.142224
v -2.526392 0.003510 -0.086251
v -2.526392 4.353952 -0.086251
v -2.807786 0.003510 -0.142224
v -2.807786 4.353952 -0.142224
v -3.046341 0.003510 -0.301621
v -3.046341 4.353952 -0.301621
v -3.205738 0.003510 -0.540175
v -3.205738 4.353952 -0.540175
v -3.261711 0.003510 -0.821570
v -3.261711 4.353952 -0.821570
v -3.205738 0.003510 -1.102964
v -3.205738 4.353952 -1.102964
v -3.046341 0.003510 -1.341519
v -3.046341 4.353952 -1.341519
v -2.807786 0.003510 -1.500916
v -2.807786 4.353952 -1.500916
usemtl None
s off
f 2 3 1
f 4 5 3
f 6 7 5
f 8 9 7
f 10 11 9
f 12 13 11
f 14 15 13
f 16 17 15
f 18 19 17
f 20 21 19
f 22 23 21
f 24 25 23
f 26 27 25
f 28 29 27
f 22 14 6
f 30 31 29
f 32 1 31
f 15 23 31
f 2 4 3
f 4 6 5
f 6 8 7
f 8 10 9
f 10 12 11
f 12 14 13
f 14 16 15
f 16 18 17
f 18 20 19
f 20 22 21
f 22 24 23
f 24 26 25
f 26 28 27
f 28 30 29
f 6 4 2
f 2 32 30
f 30 28 26
f 26 24 22
f 22 20 18
f 18 16 14
f 14 12 10
f 10 8 6
f 6 2 30
f 30 26 22
f 22 18 14
f 14 10 6
f 6 30 22
f 30 32 31
f 32 2 1
f 31 1 3
f 3 5 31
f 7 9 11
f 11 13 7
f 15 17 19
f 19 21 15
f 23 25 27
f 27 29 23
f 31 5 7
f 7 13 15
f 15 21 23
f 23 29 31
f 31 7 15
o Cylinder.002
v -0.771330 0.005470 -0.566031
v -0.771330 6.785399 -0.566031
v -0.351916 0.005470 -0.482605
v -0.351916 6.785399 -0.482605
v 0.003645 0.005470 -0.245026
v 0.003645 6.785399 -0.245026
v 0.241224 0.005470 0.110536
v 0.241224 6.785399 0.110536
v 0.324651 0.005470 0.529950
v 0.324651 6.785399 0.529950
v 0.241224 0.005470 0.949364
v 0.241224 6.785399 0.949364
v 0.003645 0.005470 1.304925
v 0.003645 6.785399 1.304925
v -0.351916 0.005470 1.542504
v -0.351916 6.785399 1.542504
v -0.771330 0.005470 1.625931
v -0.771330 6.785399 1.625931
v -1.190744 0.005470 1.542505
v -1.190744 6.785399 1.542505
v -1.546306 0.005470 1.304926
v -1.546306 6.785399 1.304926
v -1.783885 0.005470 0.949364
v -1.783885 6.785399 0.949364
v -1.867311 0.005470 0.529950
v -1.867311 6.785399 0.529950
v -1.783885 0.005470 0.110536
v -1.783885 6.785399 0.110536
v -1.546306 0.005470 -0.245026
v -1.546306 6.785399 -0.245026
v -1.190744 0.005470 -0.482605
v -1.190744 6.785399 -0.482605
usemtl None
s off
f 34 35 33
f 36 37 35
f 38 39 37
f 40 41 39
f 42 43 41
f 44 45 43
f 46 47 45
f 48 49 47
f 50 51 49
f 52 53 51
f 54 55 53
f 56 57 55
f 58 59 57
f 60 61 59
f 54 46 62
f 62 63 61
f 64 33 63
f 47 59 63
f 34 36 35
f 36 38 37
f 38 40 39
f 40 42 41
f 42 44 43
f 44 46 45
f 46 48 47
f 48 50 49
f 50 52 51
f 52 54 53
f 54 56 55
f 56 58 57
f 58 60 59
f 60 62 61
f 38 36 34
f 34 64 62
f 62 60 54
f 58 56 54
f 54 52 50
f 50 48 54
f 46 44 42
f 42 40 38
f 38 34 62
f 60 58 54
f 54 48 46
f 46 42 38
f 38 62 46
f 62 64 63
f 64 34 33
f 63 33 39
f 35 37 39
f 39 41 43
f 43 45 39
f 47 49 51
f 51 53 47
f 55 57 59
f 59 61 63
f 33 35 39
f 39 45 47
f 47 53 55
f 55 59 47
f 63 39 47
o Cylinder.001
v 2.992788 0.002975 -0.520465
v 2.992788 3.689954 -0.520465
v 3.313462 0.002975 -0.456679
v 3.313462 3.689954 -0.456679
v 3.585316 0.002975 -0.275032
v 3.585316 3.689954 -0.275032
v 3.766963 0.002975 -0.003177
v 3.766963 3.689954 -0.003177
v 3.830750 0.002975 0.317497
v 3.830750 3.689954 0.317497
v 3.766963 0.002975 0.638171
v 3.766963 3.689954 0.638171
v 3.585316 0.002975 0.910025
v 3.585316 3.689954 0.910025
v 3.313462 0.002975 1.091672
v 3.313462 3.689954 1.091672
v 2.992788 0.002975 1.155458
v 2.992788 3.689954 1.155458
v 2.672114 0.002975 1.091672
v 2.672114 3.689954 1.091672
v 2.400259 0.002975 0.910025
v 2.400259 3.689954 0.910025
v 2.218612 0.002975 0.638171
v 2.218612 3.689954 0.638171
v 2.154826 0.002975 0.317497
v 2.154826 3.689954 0.317497
v 2.218612 0.002975 -0.003178
v 2.218612 3.689954 -0.003178
v 2.400260 0.002975 -0.275032
v 2.400260 3.689954 -0.275032
v 2.672114 0.002975 -0.456679
v 2.672114 3.689954 -0.456679
usemtl None
s off
f 66 67 65
f 68 69 67
f 70 71 69
f 72 73 71
f 74 75 73
f 76 77 75
f 78 79 77
f 80 81 79
f 82 83 81
f 84 85 83
f 86 87 85
f 88 89 87
f 90 91 89
f 92 93 91
f 82 78 70
f 94 95 93
f 96 65 95
f 79 87 71
f 66 68 67
f 68 70 69
f 70 72 71
f 72 74 73
f 74 76 75
f 76 78 77
f 78 80 79
f 80 82 81
f 82 84 83
f 84 86 85
f 86 88 87
f 88 90 89
f 90 92 91
f 92 94 93
f 70 68 66
f 66 96 94
f 94 92 90
f 90 88 94
f 86 84 82
f 82 80 78
f 78 76 74
f 74 72 70
f 70 66 94
f 94 88 86
f 86 82 70
f 78 74 70
f 70 94 86
f 94 96 95
f 96 66 65
f 95 65 67
f 67 69 95
f 71 73 75
f 75 77 71
f 79 81 83
f 83 85 87
f 87 89 91
f 91 93 87
f 95 69 71
f 71 77 79
f 79 83 87
f 87 93 95
f 95 71 87
o Cylinder
v 1.088111 0.004661 -2.155773
v 1.088111 5.781253 -2.155773
v 1.633864 0.004661 -2.047216
v 1.633864 5.781253 -2.047216
v 2.096531 0.004661 -1.738071
v 2.096531 5.781253 -1.738071
v 2.405676 0.004661 -1.275404
v 2.405676 5.781253 -1.275404
v 2.514233 0.004661 -0.729651
v 2.514233 5.781253 -0.729651
v 2.405676 0.004661 -0.183897
v 2.405676 5.781253 -0.183897
v 2.096531 0.004661 0.278770
v 2.096531 5.781253 0.278770
v 1.633864 0.004661 0.587915
v 1.633864 5.781253 0.587915
v 1.088111 0.004661 0.696472
v 1.088111 5.781253 0.696472
v 0.542358 0.004661 0.587915
v 0.542358 5.781253 0.587915
v 0.079690 0.004661 0.278770
v 0.079690 5.781253 0.278770
v -0.229454 0.004661 -0.183897
v -0.229454 5.781253 -0.183897
v -0.338012 0.004661 -0.729651
v -0.338012 5.781253 -0.729651
v -0.229454 0.004661 -1.275404
v -0.229454 5.781253 -1.275404
v 0.079690 0.004661 -1.738072
v 0.079690 5.781253 -1.738072
v 0.542358 0.004661 -2.047216
v 0.542358 5.781253 -2.047216
usemtl None
s off
f 98 99 97
f 100 101 99
f 102 103 101
f 104 105 103
f 106 107 105
f 108 109 107
f 110 111 109
f 112 113 111
f 114 115 113
f 116 117 115
f 118 119 117
f 120 121 119
f 122 123 121
f 124 125 123
f 118 110 102
f 126 127 125
f 128 97 127
f 115 119 127
f 98 100 99
f 100 102 101
f 102 104 103
f 104 106 105
f 106 108 107
f 108 110 109
f 110 112 111
f 112 114 113
f 114 116 115
f 116 118 117
f 118 120 119
f 120 122 121
f 122 124 123
f 124 126 125
f 102 100 98
f 98 128 126
f 126 124 122
f 122 120 118
f 118 116 114
f 114 112 110
f 110 108 106
f 106 104 110
f 102 98 126
f 126 122 118
f 118 114 110
f 110 104 102
f 102 126 118
f 126 128 127
f 128 98 97
f 127 97 103
f 99 101 103
f 103 105 107
f 107 109 103
f 111 113 115
f 115 117 119
f 119 121 123
f 123 125 119
f 97 99 103
f 103 109 111
f 111 115 127
f 119 125 127
f 127 103 111
