# This file uses centimeters as units for non-parametric coordinates.

mtllib short_straight.mtl
v -1.462402 0.000000 0.109741
v -1.462402 0.584961 0.109741
v -1.462402 0.000000 0.036499
v -1.462402 0.097534 0.036499
v -1.462402 0.000000 -0.036499
v -1.462402 0.097534 -0.036499
v -1.462402 0.000000 -0.109741
v -1.462402 0.584961 -0.109741
v 1.462402 0.000000 0.109741
v 1.462402 0.584961 0.109741
v 1.462402 0.000000 0.036499
v 1.462402 0.097534 0.036499
v 1.462402 0.000000 -0.036499
v 1.462402 0.097534 -0.036499
v 1.462402 0.000000 -0.109741
v 1.462402 0.584961 -0.109741
vt 0.043884 0.408777
vt 0.956116 0.591223
vt 0.956116 0.408777
vt 0.043884 0.591223
vt 0.956116 0.591223
vt 0.043884 0.408777
vt 0.956116 0.408777
vt 0.043884 0.591223
vt 0.983015 0.697667
vt 0.016985 0.770159
vt 0.016985 0.697667
vt 0.983015 0.770159
usemtl lambert2SG
f 15 14 13
f 11 10 9
f 10 11 12
f 10 12 16
f 16 12 14
f 16 14 15
f 8 1 2
f 1 8 4
f 4 8 6
f 6 8 5
f 5 8 7
f 3 1 4
f 7/1 16/2 15/3
f 16/2 7/1 8/4
f 10/9 8/10 2/11
f 8/10 10/9 16/12
f 10/5 1/6 9/7
f 1/6 10/5 2/8
